<?xml version="1.0" encoding="UTF-8" standalone="no"?>
<!-- Created with Inkscape (http://www.inkscape.org/) -->

<svg
   width="222mm"
   height="222mm"
   viewBox="0 0 222 222"
   version="1.1"
   id="svg5"
   xml:space="preserve"
   sodipodi:docname="chicagoPIZZAisolated.svg"
   inkscape:version="1.2.2 (b0a8486, 2022-12-01)"
   xmlns:inkscape="http://www.inkscape.org/namespaces/inkscape"
   xmlns:sodipodi="http://sodipodi.sourceforge.net/DTD/sodipodi-0.dtd"
   xmlns="http://www.w3.org/2000/svg"
   xmlns:svg="http://www.w3.org/2000/svg"
   xmlns:rdf="http://www.w3.org/1999/02/22-rdf-syntax-ns#"
   xmlns:cc="http://creativecommons.org/ns#"
   xmlns:dc="http://purl.org/dc/elements/1.1/"><sodipodi:namedview
     id="namedview7"
     pagecolor="#ffffff"
     bordercolor="#000000"
     borderopacity="0.25"
     inkscape:showpageshadow="2"
     inkscape:pageopacity="0.0"
     inkscape:pagecheckerboard="0"
     inkscape:deskcolor="#d1d1d1"
     inkscape:document-units="mm"
     showgrid="false"
     inkscape:zoom="0.45"
     inkscape:cx="415.55556"
     inkscape:cy="444.44444"
     inkscape:window-width="1698"
     inkscape:window-height="944"
     inkscape:window-x="0"
     inkscape:window-y="25"
     inkscape:window-maximized="0"
     inkscape:current-layer="layer1" /><defs
     id="defs2" /><g
     inkscape:label="Layer 1"
     inkscape:groupmode="layer"
     id="layer1"
     transform="translate(-16.371978,-45.758063)"
     style="display:inline"><g
       id="g5682"
       transform="matrix(2,0,0,2,-73.893384,-230.58876)"><path
         style="fill:#dec198;fill-opacity:1;stroke:none;stroke-width:0.79375;stroke-linecap:round;stroke-linejoin:round"
         d="m 112.35144,140.02456 -3.11731,1.16899 1.16899,7.01395 -3.50698,13.24858 -8.572606,-1.16899 -13.63825,2.72765 -14.027911,6.62429 -12.858919,17.14523 -4.286305,14.41757 3.117313,18.31422 8.962278,12.85892 9.351944,8.57261 14.80724,5.4553 14.027906,-2.33798 8.96227,-1.55866 12.85892,-8.57261 8.18295,-11.68993 5.4553,-9.35194 0.38967,-12.46926 1.16899,-10.13126 -3.89664,-10.9106 -23.76952,14.80724 5.84496,-4.67597 3.89664,-5.4553 25.32818,-21.43153 -3.50698,-8.18295 -15.97623,-10.13127 -10.9106,-3.11731 z"
         id="path4408"
         sodipodi:nodetypes="ccccccccccccccccccccccccccccc" /><path
         style="fill:#e6cc70;fill-opacity:1;stroke:none;stroke-width:0.79375;stroke-linecap:round;stroke-linejoin:round"
         d="m 104.16849,166.52172 -8.182936,-1.169 -12.0796,2.33799 -12.46925,7.79328 -8.182949,10.52094 -4.286308,11.30026 0.389665,10.9106 4.286306,12.46925 7.793286,10.9106 10.13127,6.62429 10.13127,2.72765 h 11.689916 l 11.30027,-4.67597 8.18294,-7.01395 7.40362,-7.40362 4.67598,-11.30027 0.77932,-9.7416 -0.38966,-14.02791 -2.72765,-3.11732 -26.1075,15.19691 -7.403616,5.84496 c 0,0 -2.72765,1.55866 -1.16899,-1.16899 1.55865,-2.72765 3.117306,-16.3659 3.117306,-16.3659 l 2.72765,-12.46925 0.77933,-6.23463 z m 10.13127,-20.6522 -11.68992,51.43567 7.01395,-6.23463 32.7318,-30.00414 -7.01396,-7.40362 -10.9106,-5.4553 -7.40362,-1.94832 z"
         id="path5018" /><path
         id="path28223"
         style="display:inline;fill:#da9077;fill-opacity:1;stroke-width:0.364604"
         d="m 112.2635,139.05873 c -2.85862,0.0452 -3.66124,0.51571 -4.33751,2.13421 -0.67383,1.61278 -0.65134,2.77249 0.0825,4.31188 0.57806,1.21221 0.55167,1.45784 -0.77123,7.22443 l -1.3694,5.9697 -6.794326,0.0138 c -5.53301,0.011 -7.43808,0.156 -10.25877,0.78119 -8.91944,1.97694 -16.271964,5.89472 -22.738647,12.11598 -6.245102,6.00809 -9.167056,10.33837 -11.559111,17.1293 -2.028115,5.75776 -2.618598,8.96196 -2.622732,14.23739 -0.0041,5.25568 0.646375,8.94215 2.535142,14.3684 1.576716,4.52981 2.74174,6.84978 5.548827,11.04639 6.990178,10.45044 17.874021,17.5503 29.760141,19.41449 1.19678,0.18778 4.80068,0.28124 8.00919,0.20793 6.000146,-0.13712 8.198666,-0.53823 13.308066,-2.42548 9.99977,-3.69353 20.91303,-13.39994 26.18389,-23.2884 2.03485,-3.81754 3.89356,-9.0176 4.82744,-13.50604 1.41856,-6.81781 1.06022,-17.62405 -0.80968,-24.41285 -0.77188,-2.80231 -2.29165,-6.19827 -2.77369,-6.19827 -0.51109,0 -9.38603,4.9904 -12.83167,7.21518 -1.89835,1.22572 -3.50987,2.16926 -3.58195,2.09719 -0.15192,-0.15193 1.81394,-1.9722 5.93978,-5.49969 1.60425,-1.37161 4.47558,-3.90766 6.38057,-5.6357 5.2688,-4.77923 10.16577,-8.71565 12.01203,-9.65562 0.91351,-0.46511 2.04329,-1.25602 2.51093,-1.7575 1.1498,-1.233 1.41306,-3.43158 0.60173,-5.02543 -1.5314,-3.00835 -7.74514,-9.60469 -11.95219,-12.68781 -6.63063,-4.85915 -15.91654,-8.02795 -23.94285,-8.17012 -0.49792,-0.008 -0.94821,-0.011 -1.35659,-0.004 z m -0.22218,3.7963 c 2.21623,0.0413 7.96748,0.87481 10.58921,1.6165 4.34125,1.22816 10.79361,4.466 14.01947,7.03572 0.55609,0.443 1.1273,0.93088 1.69982,1.44774 4.00766,3.61808 8.08316,8.64889 7.54062,9.52673 -0.42666,0.69036 -1.11799,0.41365 -1.78385,-0.71355 -1.28723,-2.17911 -6.93539,-7.69328 -9.85999,-9.62642 -3.97449,-2.6271 -6.63227,-3.91052 -10.97161,-5.29744 -3.68023,-1.17626 -9.08792,-2.17637 -9.50607,-1.75822 -0.12499,0.12499 -0.93632,3.56229 -1.80308,7.63817 -2.25234,10.59183 -4.04736,18.46941 -5.26255,23.08902 -0.58024,2.20584 -1.41458,5.81545 -1.85365,8.02131 -1.07062,5.37864 -2.80639,12.35678 -3.4666,13.93686 -0.27932,0.66851 -0.45108,1.18951 -0.51984,1.56025 -0.0346,0.18538 -0.043,0.33284 -0.0263,0.44294 0.0831,0.55053 0.7972,0.15692 2.07582,-1.21559 0.47042,-0.50496 1.1604,-1.19623 2.02455,-2.03309 6.04912,-5.85809 20.65158,-18.86827 28.50896,-25.32365 1.62222,-1.33287 4.33808,-3.67089 6.03519,-5.19561 1.69712,-1.52471 3.29683,-2.77227 3.5549,-2.77227 1.62623,0 -0.63696,2.29 -12.80602,12.9577 -4.97405,4.36037 -8.78105,7.75309 -11.56837,10.31433 -1.39366,1.28053 -2.53212,2.35342 -3.43454,3.23515 -0.90242,0.88172 -1.56858,1.5726 -2.01672,2.08935 -0.29892,0.3447 -0.79723,0.82618 -1.45771,1.41427 -0.66048,0.58808 -1.48304,1.28246 -2.43117,2.05374 -1.89627,1.54272 -4.29405,3.39224 -6.89758,5.30743 -2.783866,2.04786 -3.035766,2.19363 -3.035766,1.7575 0,-0.16976 0.50143,-2.60373 1.113756,-5.40853 0.61233,-2.80481 1.68649,-7.88872 2.38703,-11.29777 1.31369,-6.39273 5.25719,-23.51091 7.85324,-34.08981 1.45307,-5.9218 1.4658,-6.03366 0.83603,-7.20307 -0.35173,-0.65333 -0.53777,-1.28954 -0.41374,-1.41356 0.0531,-0.053 0.22142,-0.0823 0.48281,-0.0933 0.11437,-0.004 0.24606,-0.005 0.3938,-0.003 z m 3.94443,5.2013 c 0.0544,-0.001 0.1287,0.003 0.22076,0.0124 1.28971,0.12637 6.05492,1.1835 7.97501,1.80308 1.59337,0.51426 1.60699,0.53113 0.45717,0.56613 -1.38618,0.0422 -5.89342,2.07933 -6.1648,2.78652 -0.10252,0.26719 -0.66517,0.59081 -1.24977,0.71924 -2.11749,0.46508 -2.73681,2.71598 -1.44417,5.24974 0.39249,0.76931 0.62411,1.48874 0.51414,1.59871 -0.37036,0.37036 0.26246,1.67424 0.91294,1.8807 0.35463,0.11258 0.9009,0.74105 1.21345,1.39647 1.88664,3.95625 6.3396,6.1919 9.95613,4.99835 3.21759,-1.0619 5.80261,-4.64938 5.78097,-8.02344 -0.0156,-2.42412 -0.68056,-3.9154 -3.06353,-6.87265 -0.99255,-1.23172 -1.72625,-2.23962 -1.63075,-2.23962 1.25493,0 10.76082,8.22778 10.76082,9.3138 0,0.49011 -5.97822,6.08884 -11.66735,10.92675 -2.10559,1.79057 -5.5511,4.79172 -7.6567,6.6697 -2.10559,1.878 -5.05509,4.508 -6.55504,5.84436 h -7.1e-4 c -1.50002,1.33631 -4.35735,3.98843 -6.34997,5.89349 -1.99263,1.90505 -3.53387,3.21712 -3.42528,2.91541 0.76528,-2.12738 2.45436,-7.699 2.65263,-8.74909 0.21138,-1.11949 0.48671,-1.3832 2.23962,-2.14988 1.44654,-0.63267 2.10823,-0.76374 2.39698,-0.47499 0.28876,0.28876 0.0318,0.61488 -0.93074,1.18284 -0.73133,0.4315 -1.33022,0.93304 -1.33022,1.11375 0,0.44614 0.99551,0.4178 1.27611,-0.0364 0.12388,-0.20053 0.55467,-0.3646 0.95708,-0.3646 0.40242,0 1.07855,-0.1854 1.50257,-0.41232 0.7272,-0.38915 0.73475,-0.43985 0.12678,-0.88445 -1.21587,-0.88906 -0.56326,-1.76862 1.53675,-2.07084 3.67388,-0.52872 5.13107,-1.9168 4.65796,-4.43863 -0.37704,-2.00976 -2.36116,-2.64232 -4.62164,-1.47338 -1.18015,0.61028 -1.78956,1.78615 -1.78956,3.4545 0,0.94299 -0.27027,1.18804 -2.55223,2.31224 -1.40373,0.69153 -2.55224,1.08115 -2.55224,0.86593 0,-0.21521 0.42431,-1.96995 0.94285,-3.89956 l 0.94285,-3.5086 1.15362,0.12609 c 0.63453,0.0695 2.09286,-0.20028 3.24086,-0.60031 1.59703,-0.55649 2.36473,-0.64835 3.26719,-0.38953 0.65256,0.18721 1.3188,0.19957 1.49119,0.027 0.63748,-0.63748 -0.8544,-1.42264 -3.17677,-1.67134 -2.34576,-0.25121 -3.15791,-0.63653 -2.36851,-1.12444 0.70009,-0.43267 1.79882,-3.45511 1.79882,-4.94852 0,-1.61136 -0.72846,-2.18459 -1.87074,-1.47123 -0.89423,0.55847 -0.89398,0.55338 0.3938,-5.20629 0.59118,-2.64402 1.23286,-6.08299 1.42638,-7.64174 0.19352,-1.55875 0.4204,-2.90212 0.50418,-2.98591 0.0124,-0.0124 0.0467,-0.0182 0.10115,-0.0193 z m -17.377826,14.38052 c 0.15379,0 0.3076,0.001 0.46075,0.003 1.400116,0.0182 2.771726,0.11521 4.097516,0.29696 1.40845,0.19304 1.69044,0.36088 1.6863,1.00265 -0.011,1.43081 -0.4386,1.70226 -2.00247,1.27043 -2.54793,-0.70352 -11.125716,-0.19686 -15.311256,0.90439 -4.12276,1.08467 -11.30834,4.49278 -14.31786,6.79076 -1.056858,0.80699 -1.979961,1.46768 -2.051619,1.46768 -0.07166,0 -0.316713,-0.22513 -0.544764,-0.49991 -0.163159,-0.19662 -0.192897,-0.38801 -0.04561,-0.65373 0.07373,-0.13284 0.191822,-0.28449 0.359612,-0.4643 0.167789,-0.1798 0.385118,-0.38795 0.657997,-0.6345 6.382464,-5.76608 17.322464,-9.49017 27.011364,-9.48328 z m 18.319236,3.59406 c -0.0244,0.006 -0.0378,0.0237 -0.0378,0.0549 0,0.81878 1.01526,2.90307 1.7917,3.67951 0.41864,0.41865 1.00665,0.76125 1.30745,0.76125 1.06841,0 0.52127,-1.32882 -1.27612,-3.09913 -0.87732,-0.86413 -1.61454,-1.43458 -1.78528,-1.39647 z m -4.67576,0.25851 c 0.0383,-0.0383 0.0892,0.0124 0.14741,0.15808 0.10528,0.26321 0.0926,0.57817 -0.0285,0.6993 -0.12113,0.12113 -0.20741,-0.0943 -0.19156,-0.47855 0.008,-0.21231 0.0343,-0.34051 0.0726,-0.37883 z m -13.736766,0.67722 c 0.35002,-0.006 0.6859,-0.006 1.00622,10e-4 2.135566,0.0463 3.572676,0.37067 3.787056,0.92932 0.1254,0.3269 -0.21378,2.73452 -0.75414,5.34943 -0.54037,2.61497 -0.98126,5.12332 -0.97988,5.57446 0.003,0.95366 -0.28078,1.0089 -1.620056,0.31406 -1.26266,-0.65509 -2.17981,-0.39346 -3.30423,0.94283 -0.74082,0.88041 -0.90724,1.46991 -0.90724,3.21593 0,1.17597 -0.17467,2.2469 -0.38882,2.37919 -0.21414,0.13229 -1.37901,0.3304 -2.58855,0.44009 -1.6536,0.14994 -2.28117,0.0728 -2.52802,-0.31049 -0.27826,-0.43202 -0.38354,-0.42661 -0.69075,0.0371 -0.26946,0.40651 -0.15421,0.71983 0.4472,1.21915 0.68041,0.56491 1.17509,0.63241 3.11054,0.42514 1.81411,-0.19427 2.64596,-0.10542 3.92732,0.42158 0.89516,0.36811 1.62805,0.91443 1.63219,1.21557 0.006,0.48613 0.0508,0.48613 0.39807,0 0.30641,-0.42887 0.34543,-0.35017 0.18158,0.36462 -0.11492,0.50133 -0.21381,1.23964 -0.21932,1.64071 -0.008,0.61418 -0.0712,0.64294 -0.3938,0.1823 -0.30243,-0.43197 -0.33615,-0.37938 -0.16023,0.24853 0.12251,0.43729 -0.0456,1.8319 -0.37386,3.09914 -0.60104,2.32073 -1.22712,3.80166 -1.24834,2.95315 -0.007,-0.25668 -0.28075,-0.3572 -0.64946,-0.23855 -0.3813,0.12265 -0.48258,0.0814 -0.25208,-0.10252 1.49092,-1.18985 2.11386,-4.02657 1.1522,-5.24688 -1.36576,-1.73314 -4.41792,-2.39853 -5.93052,-1.2925 -0.63251,0.46251 -0.88242,0.38278 -2.48458,-0.7933 -0.97983,-0.71927 -2.04817,-1.33033 -2.37421,-1.35872 -0.32604,-0.0282 -1.49047,-0.9715 -2.58712,-2.09576 -1.09664,-1.12426 -2.12567,-1.96282 -2.28733,-1.86291 -0.16161,0.0999 -0.24882,-0.0357 -0.1937,-0.30123 0.0551,-0.26557 -0.0991,-0.44361 -0.34252,-0.39593 -0.27381,0.0536 -0.35389,-0.14438 -0.21008,-0.51913 0.16823,-0.43841 0.0807,-0.5471 -0.31689,-0.39452 -0.31403,0.12058 -0.54976,0.01 -0.54976,-0.25849 0,-0.51723 0.56741,-0.32002 3.41889,1.18639 1.9092,1.00854 2.98235,0.99659 5.75676,-0.062 1.69919,-0.64825 2.43184,-1.17971 3.28144,-2.38205 0.97062,-1.37358 1.09382,-1.84343 1.09382,-4.17158 0,-2.42033 -0.10005,-2.76422 -1.29107,-4.43507 -1.52769,-2.14305 -3.20353,-3.08885 -5.45412,-3.0792 -3.22317,0.0146 -6.61818,2.53103 -7.13542,5.28818 -0.30372,1.61897 0.043,3.90002 0.82179,5.40641 0.57524,1.11261 0.57268,1.13126 -0.10115,0.63094 -0.38192,-0.2836 -1.20523,-1.08453 -1.82873,-1.7796 -1.83163,-2.04184 -2.25649,-1.23773 -0.51201,0.9692 2.55823,3.23642 1.36258,2.49056 -1.59443,-0.99483 l -2.77514,-3.27218 2.64269,-1.92273 c 5.67811,-4.13075 10.95981,-6.07 18.89107,-6.93602 1.25292,-0.13684 2.4287,-0.21135 3.47869,-0.22859 z m -1.2163,0.70143 c -0.68704,0.004 -1.11073,0.22781 -1.83441,0.83674 -1.30859,1.10108 -1.84069,2.9749 -1.18996,4.19082 0.23169,0.43292 0.94412,1.10586 1.58305,1.49544 1.40519,0.85681 1.80147,0.87435 3.33485,0.14671 3.211796,-1.52409 2.446666,-6.13098 -1.09738,-6.60634 -0.30825,-0.0413 -0.56713,-0.0648 -0.79615,-0.0634 z m 14.588466,0.0798 c 0.0383,-0.0383 0.0892,0.0124 0.14741,0.15808 0.10528,0.26321 0.0926,0.57817 -0.0285,0.6993 -0.12126,0.12113 -0.20739,-0.0941 -0.19154,-0.47853 0.008,-0.21239 0.0343,-0.34052 0.0726,-0.37885 z m -0.1588,2.00176 c 0.0179,0.0183 0.0284,0.0621 0.0313,0.13311 0.0156,0.38217 0.78218,1.01837 1.93981,1.6101 l 1.91417,0.97846 -1.09381,0.27416 c -0.60159,0.15099 -1.79501,0.34941 -2.65263,0.44008 -1.45374,0.15371 -1.5429,0.11245 -1.31529,-0.60885 0.57749,-1.83007 1.05141,-2.95513 1.17642,-2.82712 z m -43.261906,5.29175 c 0.02563,0 0.05044,0.001 0.07483,0.006 0.129673,0.0223 0.244532,0.10748 0.375996,0.235 0.06587,0.064 0.120578,0.12513 0.160941,0.19013 0.04051,0.065 0.06656,0.1334 0.07483,0.21079 0.0083,0.0773 -5.65e-4,0.16318 -0.0299,0.26419 -0.02935,0.10115 -0.07869,0.21679 -0.152383,0.35322 -0.07345,0.13601 -0.171069,0.29183 -0.294817,0.47426 -0.3712,0.54739 -0.981917,1.32924 -1.91632,2.49955 -0.553308,0.69298 -1.066405,1.35496 -1.544583,1.99535 v 7.2e-4 c -0.478025,0.6402 -0.921201,1.2582 -1.333081,1.86289 -2.472083,3.62934 -3.833171,6.77283 -5.049633,11.27497 -0.655857,2.42738 -0.786936,3.89587 -0.77977,8.75051 0.0019,1.29403 0.01047,2.3309 0.03561,3.20953 0.03776,1.31822 0.113454,2.27897 0.261348,3.21379 0.04929,0.31156 0.106384,0.61987 0.173045,0.93786 0.133339,0.63611 0.303738,1.30949 0.521983,2.11855 0.141251,0.52364 0.308956,1.0765 0.498483,1.64997 1.326631,4.01443 3.730258,9.02143 5.733257,11.82544 0.272934,0.38208 0.592679,0.79183 0.949258,1.22128 0.356691,0.42961 0.749706,0.87862 1.171439,1.33807 0.421678,0.45941 0.871441,0.92906 1.33949,1.40075 2.339528,2.35763 5.141577,4.7592 7.240107,6.10712 3.26267,2.09554 7.06965,3.7139 11.00721,4.76335 1.12503,0.29985 2.26081,0.55364 3.39752,0.75842 1.70508,0.30716 3.41234,0.50491 5.08952,0.58608 2.23623,0.10817 4.41867,0.008 6.470296,-0.31476 1.29314,-0.20403 2.62837,-0.51496 3.9786,-0.91864 0.90016,-0.26911 1.80705,-0.57957 2.71247,-0.92718 0.90534,-0.3476 1.80933,-0.73219 2.70391,-1.15007 0.89458,-0.41788 1.78002,-0.86879 2.64765,-1.34875 0.60037,-0.33212 1.18795,-0.6826 1.7689,-1.04111 1.51796,-0.93678 2.96455,-1.95443 4.28412,-3.0379 0.72982,-0.59927 1.42215,-1.21746 2.0687,-1.85008 1.54003,-1.50694 2.0463,-1.95058 2.54011,-1.8978 0.16464,0.0176 0.32798,0.0904 0.52769,0.19725 0.47257,0.25291 0.81173,0.64433 0.75413,0.87021 -0.01,0.0394 -0.0373,0.0921 -0.0805,0.15667 -0.0431,0.0646 -0.1017,0.14092 -0.17448,0.22787 v 7.2e-4 c -0.14564,0.17384 -0.3478,0.38892 -0.59248,0.6345 -0.24482,0.2457 -0.53272,0.52177 -0.85028,0.81609 -1.58768,1.47157 -3.91963,3.40571 -5.34372,4.35104 -1.49346,0.99129 -3.01212,1.89095 -4.53977,2.69251 -0.76381,0.40079 -1.52936,0.77696 -2.29587,1.128 -0.76649,0.35104 -1.53347,0.67656 -2.29871,0.97631 -2.29572,0.89928 -4.57687,1.56472 -6.79077,1.97471 -0.73788,0.1367 -1.46872,0.24478 -2.18976,0.32402 -1.947156,0.21402 -3.998176,0.36133 -4.557556,0.32757 -1.43873,-0.0867 -2.83866,-0.22414 -4.2015,-0.41302 h -7e-4 c -1.3628,-0.18893 -2.68924,-0.4297 -3.98075,-0.72281 -5.81265,-1.31922 -10.92648,-3.70346 -15.550525,-7.24509 -1.027558,-0.78704 -2.030766,-1.63141 -3.012256,-2.53372 -0.490746,-0.45116 -0.976254,-0.91684 -1.456278,-1.39718 -0.439758,-0.43999 -0.853692,-0.86506 -1.245508,-1.2811 -0.783619,-0.83207 -1.479525,-1.6275 -2.119966,-2.43117 -1.601096,-2.00918 -2.855733,-4.07014 -4.270576,-6.88476 -0.832346,-1.65583 -1.484783,-3.06866 -2.01031,-4.38807 -0.175164,-0.43975 -0.336124,-0.86874 -0.484953,-1.29322 -0.297658,-0.84887 -0.546404,-1.6781 -0.761967,-2.53229 -0.215561,-0.85418 -0.398121,-1.73329 -0.562574,-2.68112 -0.675225,-3.89167 -0.762091,-10.74117 -0.177317,-13.96607 0.579266,-3.19444 1.574195,-6.33902 2.923247,-9.3081 0.192703,-0.42405 0.392648,-0.84463 0.599603,-1.26115 0.207048,-0.41679 0.421383,-0.82916 0.642331,-1.23767 0.220843,-0.40832 0.448554,-0.81199 0.682922,-1.21132 0.468825,-0.79881 0.963995,-1.57877 1.484766,-2.33717 0.260324,-0.37912 0.526946,-0.75224 0.7997,-1.12016 0.272865,-0.36807 0.55109,-0.73056 0.836039,-1.08669 0.284812,-0.35599 0.575811,-0.70563 0.872337,-1.04894 0.296525,-0.34333 0.598659,-0.67987 0.906525,-1.0098 0.7518,-0.80563 1.258489,-1.33312 1.625776,-1.65069 0.183637,-0.15878 0.33212,-0.26515 0.459312,-0.32757 0.09536,-0.0467 0.178897,-0.0688 0.255653,-0.0697 z m 2.740233,3.38115 c 0.374108,0.0577 0.888238,0.60261 2.175517,2.00674 1.16572,1.27153 3.86998,4.11633 6.00957,6.32218 6.06278,6.25064 14.13505,15.30082 13.76738,15.43518 -0.18271,0.0668 -1.06762,-0.15961 -1.96616,-0.50277 -1.54505,-0.59021 -1.68583,-0.58893 -2.59852,0.008 l -0.96491,0.63237 0.68363,-0.91294 c 0.37634,-0.50193 0.78473,-0.85177 0.90724,-0.77763 0.12251,0.0741 0.0967,-0.55284 -0.0569,-1.39362 -0.30414,-1.66316 -2.35392,-3.93084 -3.53283,-3.9081 -0.85376,0.0164 -3.17381,1.16978 -3.27717,1.62933 -0.0449,0.19976 -0.3252,1.01947 -0.62238,1.82159 -0.76506,2.06494 -0.69904,2.85348 0.31973,3.81055 1.56255,1.46795 6.47343,1.95093 8.75763,0.86166 1.21488,-0.57931 1.36578,-0.57764 2.6441,0.0321 1.9122,0.91186 1.2286,1.15783 -4.76621,1.71193 -4.65398,0.43016 -5.07897,0.41842 -5.39644,-0.14883 -0.25846,-0.46185 -0.84714,-0.61599 -2.35568,-0.61599 -2.16607,0 -3.42174,0.45851 -3.42174,1.24978 0,0.27228 -0.25889,0.5947 -0.5761,0.71638 l -7e-4,7.2e-4 c -0.31719,0.12181 -0.85042,0.18376 -1.18497,0.13814 -0.33452,-0.0456 -3.84857,-0.13132 -7.809093,-0.19014 l -7.200939,-0.10679 v -2.70036 c 0,-3.50795 0.587606,-7.76119 1.513253,-10.95736 0.693115,-2.39328 2.868547,-6.84519 3.551335,-7.26717 0.16885,-0.10431 0.600547,0.13422 0.959221,0.53053 0.672467,0.74301 1.807429,0.95867 2.147748,0.40804 0.106246,-0.17191 0.03803,-1.26592 -0.15168,-2.43189 -0.299612,-1.84086 -0.252056,-2.27101 0.36318,-3.26649 0.389681,-0.63052 1.030232,-1.43789 1.423522,-1.79382 0.2606,-0.23583 0.434963,-0.37643 0.659431,-0.34181 z M 70.747,181.93825 c -0.07744,-0.008 -0.151073,-0.008 -0.220747,7.1e-4 -0.148662,0.02 -0.279148,0.0819 -0.388109,0.19085 -0.332492,0.33249 -0.07028,0.79981 1.140819,2.03381 1.469465,1.49729 1.522382,1.61851 0.803972,1.84652 -0.826434,0.2623 -1.066157,1.26987 -0.313324,1.31741 0.323645,0.0204 0.311629,0.0861 -0.04134,0.22647 -0.329088,0.13091 -0.364489,0.27922 -0.105419,0.43937 0.21518,0.13298 -0.36245,0.27466 -1.283941,0.31476 -2.157711,0.094 -4.419422,1.41642 -5.780987,3.38114 -1.227525,1.77135 -1.643457,5.2077 -0.902254,7.45374 0.596537,1.8075 2.409409,3.80208 4.191536,4.61167 2.696853,1.22516 6.920538,0.61762 9.568018,-1.37651 1.50539,-1.13388 2.46115,-4.14873 2.1798,-6.87479 -0.46193,-4.47556 -6.44719,-13.2905 -8.848078,-13.56515 z m 66.185,1.97826 7e-4,7.2e-4 c 0.0306,-0.003 0.0502,0.001 0.0598,0.011 0.14446,0.14906 0.59275,1.5839 0.99625,3.18816 3.21304,12.77313 0.73543,26.84982 -6.70672,38.10117 -0.86217,1.30346 -1.96154,2.73867 -2.44257,3.18959 l -0.87448,0.82035 -0.80612,-0.75127 -0.80611,-0.75129 2.204,-2.4383 c 0.22101,-0.24449 0.43914,-0.49842 0.65514,-0.76125 0.21588,-0.26268 0.42902,-0.53389 0.63949,-0.81395 2.73618,-3.64089 4.99625,-8.71046 6.30296,-14.1797 0.1006,-0.4207 0.19512,-0.84333 0.28414,-1.26828 0.96003,-4.5826 0.97165,-15.86719 0.0207,-19.95499 -0.0903,-0.38782 -0.18536,-0.76341 -0.28058,-1.1109 -0.0952,-0.34729 -0.19043,-0.66604 -0.27987,-0.94 -0.17876,-0.54791 -0.33489,-0.91582 -0.42584,-0.97205 -0.0175,-0.011 -0.0471,-0.0152 -0.0741,-0.0191 -0.001,-0.004 -0.003,-0.007 -0.004,-0.011 -0.0463,-0.12802 -0.10032,-0.25265 -0.13739,-0.38384 -0.035,-0.0965 -0.0554,-0.19705 -0.0783,-0.29695 0.33788,-0.14748 0.59332,-0.24917 0.84885,-0.35107 0.0707,-0.0513 0.15128,-0.0932 0.24568,-0.11397 0.01,-0.003 0.0194,0.001 0.0292,0 0.30857,-0.11699 0.52959,-0.18668 0.62952,-0.19299 z m -4.65512,2.57645 c 0.17464,-0.004 0.28116,0.0445 0.34182,0.13887 0.81995,1.27563 1.6812,5.92711 1.86218,10.05511 0.0638,1.45386 -0.0124,2.64338 -0.16948,2.64338 -0.15695,0 -0.28556,-0.14079 -0.28556,-0.31334 0,-0.17254 -0.40375,-0.90921 -0.89726,-1.63644 -0.85466,-1.25941 -0.86924,-1.37092 -0.30977,-2.34573 0.8114,-1.41374 0.3724,-3.52287 -1.02403,-4.9193 -1.53508,-1.53507 -3.26359,-1.2429 -5.16429,0.87305 -1.39898,1.55739 -1.79037,1.5707 -2.24175,0.074 -0.21478,-0.71211 0.18038,-1.00615 3.83974,-2.85487 2.38367,-1.20419 3.52447,-1.70085 4.0484,-1.71478 z m -10.66967,1.28181 c 0.0146,0.001 0.022,0.008 0.022,0.0214 0,0.10032 -0.49222,0.53299 -1.09381,0.96135 -0.6016,0.42838 -1.09382,0.69708 -1.09382,0.59676 0,-0.10032 0.49222,-0.53299 1.09382,-0.96137 0.45119,-0.32129 0.84101,-0.55273 1.00764,-0.606 v -7.2e-4 c 0.0278,-0.008 0.0495,-0.0124 0.0641,-0.011 z m -48.947458,0.6231 c 0.238827,-0.003 0.535542,0.15838 0.659432,0.35891 0.27975,0.45267 0.15354,0.45267 -0.546916,0 -0.328661,-0.21237 -0.373571,-0.35615 -0.112447,-0.35891 z m 14.760792,2.91257 c 0.022,-0.003 0.0868,0.0394 0.19726,0.13312 0.548,0.46463 1.09518,0.60789 1.72119,0.45077 0.8699,-0.21834 0.90612,-0.1682 0.69146,0.95923 -0.12458,0.65443 -0.24354,1.20104 -0.2649,1.21345 -0.0214,0.0124 -0.69443,-0.72561 -1.49546,-1.64072 -0.60076,-0.68637 -0.91585,-1.10674 -0.84955,-1.11589 z m 30.532066,2.84136 c 0.25843,-0.048 0.34588,0.11175 0.46787,0.4415 0.27325,0.73867 3.04156,2.91071 3.7194,2.91898 0.22058,0.003 0.77181,0.57674 1.22483,1.27612 0.45306,0.69937 0.98629,1.27112 1.18497,1.27112 0.55098,0 0.4302,-0.94712 -0.18586,-1.45841 -0.6599,-0.54772 -0.73417,-1.24934 -0.0911,-0.86309 0.35385,0.21256 0.36108,0.15614 0.0306,-0.2528 -0.32839,-0.40637 -0.30738,-0.68828 0.0911,-1.23338 0.28422,-0.38869 0.51629,-1.00383 0.51629,-1.36657 0,-0.36274 0.16407,-0.65942 0.3646,-0.65942 0.20053,0 0.3646,0.31393 0.3646,0.69716 0,0.91369 2.0077,2.58428 3.10555,2.58428 0.47411,0 0.96352,0.16407 1.08741,0.3646 0.12388,0.20053 0.53294,0.36462 0.90866,0.36462 0.79814,0 1.25175,1.1253 0.90012,2.2332 -0.15427,0.48607 -0.0612,0.89143 0.24924,1.08812 0.72362,0.4585 0.96184,0.404 1.77033,-0.4045 l 0.7292,-0.7292 v 1.10093 c 0,1.01657 -0.0766,1.0822 -1.00265,0.85811 -0.55147,-0.13339 -1.33875,-0.36615 -1.74968,-0.51699 -1.62226,-0.59571 -5.56895,-0.79043 -6.9282,-0.34182 -1.17058,0.38631 -1.4051,0.36841 -1.68416,-0.13037 -0.26268,-0.4694 -0.4923,-0.50284 -1.20989,-0.17589 -0.72059,0.32833 -1.06749,0.27496 -1.86291,-0.28627 -0.98946,-0.69821 -1.10128,-0.76435 -2.6562,-1.57806 -1.04292,-0.54578 -1.56335,-0.0175 -1.41284,1.43492 0.0755,0.72938 0.41979,1.01481 1.72333,1.42709 1.50332,0.47548 1.56664,0.54291 0.82037,0.87591 -0.49646,0.22152 -0.80898,0.68468 -0.80898,1.19991 0,0.68636 0.24911,0.88093 1.36728,1.06676 2.08136,0.34592 2.27877,0.45382 2.27877,1.24691 0,0.4042 0.45721,1.24649 1.01548,1.87146 0.7807,0.87375 1.31864,1.13583 2.32935,1.13583 1.47695,0 3.91692,-1.02733 4.2015,-1.76892 0.10294,-0.26801 0.33391,-0.39648 0.51342,-0.28555 0.61863,0.38232 0.32438,-0.83054 -0.50132,-2.06657 -0.45521,-0.68138 -1.39861,-1.5258 -2.09647,-1.87643 l -1.26901,-0.63735 1.34947,-7e-4 c 2.00731,-8.4e-4 4.92189,0.70437 5.76745,1.39575 0.41503,0.33934 0.84317,1.25427 0.96705,2.06727 l 0.22218,1.45843 -0.77834,-0.96635 c -0.8725,-1.08349 -3.06215,-2.06791 -2.74165,-1.23267 0.1017,0.2652 -0.0124,1.19685 -0.25281,2.07012 -1.02701,3.72462 -1.04429,3.9826 -0.30906,4.71778 0.95301,0.953 1.66097,0.87676 2.74806,-0.29624 l 0.92149,-0.99411 -0.75841,1.92343 c -1.48484,3.76707 -3.82907,7.6733 -6.28302,10.46813 -0.6103,0.6951 -1.33848,1.26402 -1.61793,1.26402 -0.27945,0 -1.12386,-0.53839 -1.87643,-1.19636 -0.75258,-0.65796 -3.33761,-2.7823 -5.74395,-4.72063 -3.82084,-3.07775 -6.38058,-5.60063 -6.38058,-6.28872 0,-0.117 0.46871,0.13367 1.04112,0.55688 0.64703,0.47835 1.44014,0.7237 2.09647,0.64873 0.88875,-0.10142 1.24277,-0.48936 2.24032,-2.45538 0.969,-1.9097 1.18497,-2.75952 1.18497,-4.66152 v -2.32579 l -1.74967,0.23214 c -0.96563,0.12816 -2.3956,0.0493 -3.1903,-0.17517 -0.79215,-0.22384 -3.21153,-0.5122 -5.37649,-0.64091 l -3.93659,-0.23358 2.46322,-1.55171 2.46322,-1.5524 1.04539,0.87946 c 2.95892,2.48979 7.54491,-0.67751 6.18759,-4.27342 -0.39199,-1.03849 -0.34692,-1.11356 1.29749,-2.13707 0.80652,-0.50203 1.2363,-0.75748 1.49473,-0.80541 z m -23.304066,3.4032 c 0.16521,0 0.33043,0.0249 0.45576,0.0755 0.25066,0.10128 0.0456,0.18373 -0.45576,0.18373 -0.50137,0 -0.70642,-0.0825 -0.45576,-0.18373 0.12541,-0.0506 0.29055,-0.0755 0.45576,-0.0755 z m -4.19295,3.94514 -1.0226,0.92076 c -0.66525,0.59858 -1.43029,0.91184 -2.18763,0.89585 -1.30333,-0.0276 -1.4826,0.0922 1.93411,-1.29747 z m 15.882376,0.38241 c -0.21237,0 -0.38669,0.16407 -0.38669,0.3646 0,0.20053 0.0725,0.36461 0.16094,0.36461 0.0885,0 0.26209,-0.16408 0.38597,-0.36461 0.12389,-0.20053 0.0521,-0.3646 -0.16022,-0.3646 z m -4.09753,3.76 3.85968,0.0342 c 2.12285,0.0187 3.86037,0.15723 3.8611,0.30763 6.9e-4,0.15039 -0.15134,0.27346 -0.33754,0.27346 -0.72381,0 -1.48477,1.20156 -1.48477,2.34501 0,0.674 0.39471,1.78078 0.90083,2.5266 0.49529,0.72979 0.85288,1.32667 0.79473,1.32667 -0.18353,0 -3.00846,-2.47732 -5.34446,-4.68645 z m -3.724376,1.11803 c 0.53006,-0.0265 1.957076,1.0974 5.271096,4.10465 1.51671,1.37626 5.20839,4.584 8.2036,7.12831 2.99528,2.54426 6.59408,5.79704 7.9978,7.22799 l 2.55224,2.60208 -1.45843,1.28965 c -5.06487,4.47896 -11.77851,8.24681 -17.08798,9.5901 -4.221396,1.06802 -12.175376,1.29198 -13.127196,0.36959 -0.1796,-0.17406 0.10556,-2.02478 0.65586,-4.25633 2.49179,-10.10334 4.2632,-17.50801 5.34944,-22.36052 0.6509,-2.90772 1.31174,-5.43521 1.46838,-5.61648 0.042,-0.0486 0.0995,-0.0752 0.17519,-0.0791 z m -3.88389,0.20793 c 0.52148,0.0963 0.32398,1.55887 -0.40449,4.90365 -0.56336,2.58662 -1.10524,4.78405 -1.20418,4.88299 -0.099,0.0991 -0.42234,-0.0212 -0.71854,-0.26703 -0.78122,-0.64837 -3.72925,-0.55193 -4.81179,0.15737 -0.50724,0.33237 -1.09405,1.09717 -1.30388,1.69911 -0.27226,0.78104 -0.49422,0.98204 -0.77407,0.70215 -0.75342,-0.75344 -1.43474,-0.45617 -1.18996,0.51914 0.21447,0.85444 0.14074,0.91151 -1.17998,0.91151 -0.90182,0 -1.62619,0.24044 -2.01244,0.66726 -0.84492,0.93363 -0.75916,1.15577 0.44578,1.15577 1.59586,0 3.79391,-1.02642 3.55135,-1.65854 -0.11162,-0.29075 -0.044,-0.52909 0.15024,-0.52909 0.19424,0 0.35322,0.56186 0.35322,1.24835 0,1.30145 1.4706,3.4915 2.3443,3.4915 0.25087,0 0.67241,0.65628 0.93714,1.45842 0.26472,0.80212 0.61918,1.45843 0.7876,1.45843 0.53836,0 0.32782,-1.74942 -0.28413,-2.36139 -0.32471,-0.32468 -0.52976,-0.62618 -0.45576,-0.67082 0.38271,-0.23074 2.50452,-0.89683 2.50452,-0.78617 0,0.0708 -0.39511,1.2465 -0.87876,2.61205 -0.48363,1.36553 -1.24952,4.12315 -1.70195,6.12848 -0.45244,2.00532 -1.00642,4.08806 -1.23054,4.62806 l -0.40734,0.98201 -2.35711,-0.83104 c -4.49848,-1.58516 -8.23215,-3.92878 -12.193608,-7.65385 l -1.815187,-1.70695 4.333955,-4.0897 c 2.3839,-2.2493 6.07258,-5.74123 8.19649,-7.75995 2.1239,-2.01871 4.84553,-4.38779 6.04872,-5.26469 1.2032,-0.87689 2.78527,-2.15282 3.51502,-2.83565 0.87088,-0.81487 1.44248,-1.24917 1.75538,-1.19138 z m -7.75354,1.01976 c 0.33556,-7.6e-4 0.59802,0.01 0.78973,0.0292 v -7.1e-4 c 0.38343,0.0397 0.4832,0.12126 0.3176,0.24639 -3.75857,2.83993 -5.36447,4.35139 -7.67235,7.22088 -3.22959,4.01538 -4.14775,4.85754 -8.32823,7.63676 -1.734448,1.15307 -3.332925,2.09647 -3.551343,2.09647 -0.528407,0 -2.368922,-2.57353 -3.493645,-4.88513 -1.080213,-2.22013 -2.942611,-7.53204 -3.28643,-9.3729 -0.242372,-1.29771 -0.227774,-1.3173 1.152201,-1.5453 0.768887,-0.12705 2.086935,-0.23224 2.928954,-0.23499 l 1.53105,-0.004 -0.528393,1.26472 c -1.129794,2.70399 -0.300191,5.8531 2.157725,8.1915 1.127396,1.07256 1.624549,1.27515 3.459469,1.40785 2.790242,0.20184 4.452742,-0.5766 5.982502,-2.80004 1.54557,-2.2464 1.83191,-5.48104 0.68078,-7.68945 -0.42086,-0.80746 -0.71504,-1.46839 -0.65372,-1.46839 0.0613,0 0.90494,0.27001 1.8743,0.60031 1.59435,0.54329 1.80189,0.54704 2.17837,0.032 0.29914,-0.40911 1.20855,-0.60411 3.23372,-0.69217 0.48344,-0.0211 0.89213,-0.032 1.22771,-0.0328 z m -13.949697,0.46572 c 0.276107,-0.0124 0.583637,0.0784 0.708557,0.28058 0.0982,0.15892 -0.13837,0.31259 -0.52554,0.34181 -0.387186,0.0292 -0.704286,-0.10101 -0.704286,-0.28911 0,-0.20755 0.245166,-0.32136 0.521269,-0.33328 z m 36.435543,0.16735 c 0.0331,6.6e-4 0.0725,0.0623 0.11685,0.18871 0.10501,0.30079 0.50006,1.16219 0.87733,1.91418 0.37728,0.75199 0.55998,1.36726 0.4059,1.36726 -0.48266,0 -1.53275,-2.07752 -1.50257,-2.97309 0.008,-0.26359 0.0339,-0.42451 0.0719,-0.47784 0.01,-0.0138 0.0196,-0.0196 0.0306,-0.0191 z m -16.195706,0.44222 c -0.16543,-0.0196 -0.39393,0.0959 -0.64946,0.37743 -0.33294,0.36681 -1.01548,0.86796 -1.51681,1.11376 -0.84726,0.41538 -0.85147,0.43156 -0.0677,0.23072 0.76963,-0.19722 0.80274,-0.1518 0.3824,0.52127 -0.25331,0.40558 -0.61687,0.64092 -0.80826,0.52269 -0.1914,-0.11824 -0.23783,-0.0368 -0.10321,0.18088 0.13463,0.21766 0.0745,0.50007 -0.13243,0.62809 -0.20705,0.12802 -0.28167,0.38604 -0.16591,0.57325 0.47004,0.76065 2.53762,-1.21636 3.20737,-3.06709 0.23194,-0.64089 0.12967,-1.04849 -0.14598,-1.081 z m 10.196806,3.81126 c -0.62683,0.0196 -1.22296,0.25689 -1.6984,0.76624 -1.707666,1.82948 -1.30442,4.67735 0.79187,5.59013 1.55549,0.6773 2.38942,0.63119 3.76569,-0.20793 0.94864,-0.5784 1.18421,-0.95983 1.18283,-1.91275 -0.006,-2.39292 -2.1615,-4.2943 -4.04199,-4.23569 z m 13.71326,0.0391 c -0.50113,-0.0438 -0.57105,0.0944 -0.48993,0.51557 0.0897,0.46561 0.70034,0.77452 2.12711,1.0753 1.10089,0.23212 2.12991,0.44042 2.28661,0.46289 0.38531,0.0554 0.77677,-1.0249 0.47925,-1.32242 -0.13064,-0.13064 -0.74083,-0.27218 -1.35659,-0.31476 -0.61578,-0.0426 -1.69214,-0.18498 -2.39129,-0.31617 -0.27315,-0.0513 -0.48811,-0.0858 -0.65516,-0.10046 z m 7.34622,2.40838 c -4.87452,0.0219 -4.61086,-0.0429 -6.17051,1.51681 l -1.47408,1.4748 1.2398,0.91792 1.23909,0.91793 0.11824,-1.38578 c 0.1152,-1.35235 0.91498,-2.66191 1.62576,-2.66191 0.20629,0 0.26244,0.5782 0.1338,1.38151 -0.30296,1.8946 0.34385,4.04993 1.33524,4.44932 1.22405,0.49312 1.7898,0.42711 3.08133,-0.36034 1.43248,-0.87338 2.46209,-2.84725 2.1449,-4.11106 -0.29157,-1.16169 -1.79767,-2.14609 -3.27362,-2.1392 z m -26.638926,0.15026 c -0.0706,0.008 -0.14137,0.0336 -0.21149,0.0769 -0.46211,0.2856 -0.1952,2.77105 0.42371,3.9487 0.28311,0.53874 0.44801,0.57845 0.89015,0.2115 0.99602,-0.82662 -0.044,-4.3689 -1.10237,-4.2371 z m 9.350116,4.29052 c -0.66303,-0.0211 -0.5445,0.76237 0.27346,1.80806 0.39214,0.50134 0.71724,1.15762 0.72137,1.45842 0.0138,0.8879 3.58141,6.67466 4.66366,7.56412 1.35456,1.11287 2.29078,1.11432 1.31458,0.001 -0.39581,-0.45119 -1.33325,-1.77136 -2.08367,-2.93392 -0.75042,-1.16257 -1.61296,-2.20934 -1.91631,-2.32578 -0.41463,-0.15911 -0.26973,-0.38239 0.58395,-0.90155 0.62456,-0.37975 1.29393,-0.5936 1.48689,-0.47427 0.19297,0.1192 0.83768,1.18175 1.43279,2.36067 1.3209,2.61668 2.36174,3.6368 3.71013,3.6368 0.96663,0 1.02475,-0.0904 1.02475,-1.5859 0,-1.17859 -0.27674,-1.96862 -1.07815,-3.07493 -1.13426,-1.56575 -3.78847,-3.36035 -4.96988,-3.36048 -0.38345,-6e-5 -1.59956,-0.48598 -2.70248,-1.07957 -1.10294,-0.5936 -2.21042,-1.08483 -2.46109,-1.0931 z m -6.33073,1.75822 c -3.792066,0.12002 -5.768716,2.49056 -5.783816,6.99726 -0.0138,4.01018 2.11042,7.26837 5.229076,8.02202 3.70719,0.89586 8.71813,-2.63905 9.23831,-6.5173 0.39671,-2.95771 -2.89489,-7.64923 -5.77029,-8.22425 -1.06664,-0.21334 -2.03818,-0.30544 -2.91328,-0.27773 z m -19.065546,3.39823 c -1.55779,-0.047 -3.09443,0.50874 -4.02346,1.83512 -1.42293,2.03152 -0.19098,5.65939 2.35568,6.93888 0.69788,0.35062 1.7605,0.63701 2.3621,0.63664 2.35597,-0.001 4.55755,-2.3814 4.55755,-4.92644 0,-2.65285 -2.65547,-4.40587 -5.25187,-4.4842 z m -6.1648,0.66227 c -0.58867,0 -2.43831,1.88198 -2.43831,2.48101 0,0.56146 0.18239,0.5491 1.43279,-0.0976 1.35077,-0.69852 2.06153,-2.38346 1.00552,-2.38346 z"
         sodipodi:nodetypes="ccccccsssssccssssssssscssscccccsssssssscsssccsscssscssscssssccsccccccsscsssssssssssccscsssssssscsssssssccsccsssssssccccscccssscscccsssssssssscssscsscsssssscsscccsccsccccssscssssscsccssccssssscccsssssssssssssccsssssccssssccscssscsccssscssscsssccssscssssssssccsccsscssscscccssssssssssssssssssssssccccsccccccsccsssscssssccsccssssscsscccccssccscscsssccccccscccccssccscccccccccccccccsssssssscccssssccccccsccccssssccsscssssscssssssssscsscssssscssssscscsscccscccccscccsssssscssccscccccssssscscscccccsssssccssssscccscccssscssccsscssscsssscsssssscsssccccccsssscccscsssssccsscssssccccccsscccssccccsssssssscssssssscscsscsssccccccccscsssccscsssccsccsscccsssssscsccssssssscsssscs" /><path
         id="path28221"
         style="display:inline;fill:#a32226;fill-opacity:1;stroke-width:0.364604"
         d="m 111.61903,139.39199 c -1.5988,0.0383 -1.90386,0.22868 -2.56006,0.88303 -1.44053,1.43649 -1.69446,2.86312 -0.85525,4.80181 l 0.71069,1.64215 -1.13797,4.88512 c -0.62598,2.68678 -1.28818,5.45938 -1.47123,6.16126 l -0.33256,1.27611 -7.211616,0.0157 c -8.28695,0.0175 -11.17862,0.51742 -17.67976,3.05926 -9.835412,3.84542 -20.034408,13.1803 -24.525364,22.44739 -4.192701,8.65168 -5.466407,17.83628 -3.661713,26.40321 3.867466,18.35907 17.430326,32.49782 34.644567,36.1151 4.18903,0.88029 13.032466,0.97988 16.767526,0.18871 8.62977,-1.82798 16.00736,-5.90134 23.10469,-12.75547 6.24806,-6.03403 10.06488,-11.86992 12.60877,-19.27918 3.04544,-8.87016 3.54106,-20.11858 1.3046,-29.61345 -0.70958,-3.01247 -2.30654,-7.07489 -2.78154,-7.07489 -0.64206,0 -8.79765,4.57317 -13.44978,7.54205 -6.39055,4.07831 -6.01598,3.86102 -6.01598,3.49436 0,-0.17023 2.91228,-2.79109 6.47174,-5.82441 3.55944,-3.03336 7.94837,-6.85799 9.75316,-8.49915 4.59722,-4.18033 9.57164,-8.143 11.35972,-9.04959 0.83331,-0.4225 1.85875,-1.20573 2.27878,-1.7397 0.85511,-1.08711 1.02186,-3.34853 0.34182,-4.63305 -0.83655,-1.58015 -4.67869,-6.00391 -7.6097,-8.76119 -7.77308,-7.31235 -17.97856,-11.57722 -27.96204,-11.68443 -0.88136,-0.01 -1.55856,-0.0138 -2.0915,-7.2e-4 z m 0.0285,3.46588 c 1.82968,-0.0728 8.18651,0.82253 10.98301,1.61366 4.34126,1.22816 10.79361,4.466 14.01947,7.03572 4.44873,3.5439 9.86048,9.97123 9.24045,10.97447 -0.42667,0.69036 -1.118,0.41365 -1.78385,-0.71355 -1.28724,-2.17911 -6.9354,-7.69328 -9.86,-9.62642 -3.97449,-2.6271 -6.63226,-3.91052 -10.97161,-5.29744 -3.68023,-1.17626 -9.08792,-2.17637 -9.50607,-1.75822 -0.12499,0.12499 -0.93632,3.5622 -1.80307,7.63817 -2.25235,10.59191 -4.04737,18.46933 -5.26256,23.08902 -0.58024,2.20584 -1.41458,5.81545 -1.85365,8.02131 -1.07062,5.37872 -2.80639,12.35678 -3.46659,13.93686 -1.11731,2.67408 -0.51617,2.98362 1.52963,0.7876 3.76339,-4.03977 21.55364,-19.97916 30.53351,-27.35674 1.6223,-1.33287 4.33807,-3.67089 6.03519,-5.19561 1.69712,-1.52471 3.29682,-2.77227 3.5549,-2.77227 1.62623,0 -0.63689,2.28991 -12.80602,12.9577 -9.94812,8.72074 -15.22706,13.57179 -17.01964,15.63883 -1.1957,1.37879 -5.57939,4.94504 -10.78646,8.77544 -2.783866,2.04786 -3.035756,2.19363 -3.035756,1.7575 0,-0.16976 0.50142,-2.60373 1.113746,-5.40853 0.61233,-2.80481 1.68649,-7.88872 2.38703,-11.29777 1.31369,-6.39282 5.2572,-23.51083 7.85325,-34.08981 1.45315,-5.9218 1.4658,-6.03366 0.83602,-7.20307 -0.35177,-0.65333 -0.53776,-1.28954 -0.41374,-1.41356 0.0531,-0.053 0.22142,-0.083 0.48281,-0.0933 z m 3.94374,4.79185 c 0.14434,-0.16389 6.55854,1.32386 9.1372,2.11926 2.87444,0.88666 5.42051,2.09946 7.839,3.73434 2.06058,1.39294 8.02129,7.15781 8.02129,7.75782 0,0.50915 -5.73551,5.89255 -12.24415,11.49146 -2.42318,2.08445 -5.95073,5.15889 -7.83901,6.83207 -1.88824,1.67313 -4.49742,3.97016 -5.79735,5.10445 -1.29995,1.13427 -4.29002,3.9266 -6.64478,6.20541 l -4.28126,4.1431 1.08741,-3.21664 c 0.59812,-1.76947 1.42456,-4.46689 1.83655,-5.9939 l 0.74915,-2.77655 1.88569,-0.67793 c 1.03694,-0.37287 2.21616,-0.7017 2.6206,-0.73064 0.4542,-0.0324 0.77976,-0.35479 0.8517,-0.84386 0.0641,-0.43549 0.0329,-0.79188 -0.069,-0.79188 -0.10198,0 -1.26224,0.55159 -2.57788,1.22556 -1.31563,0.67397 -2.392,1.07026 -2.392,0.88089 0,-0.66323 1.51465,-6.32995 2.56079,-9.58084 0.58078,-1.8048 1.37873,-4.7581 1.77317,-6.56289 0.39442,-1.80479 1.12954,-5.16827 1.6336,-7.47439 0.50406,-2.30609 1.1087,-5.66963 1.34376,-7.47439 0.23507,-1.80479 0.46261,-3.32167 0.5056,-3.37045 z m 9.11796,3.22019 c -1.26503,0.0232 -2.59295,0.41197 -3.99141,1.16288 -1.61106,0.86512 -2.22004,1.4068 -2.31155,2.05447 -0.0952,0.67356 -0.19962,0.75891 -0.44649,0.3646 -0.27579,-0.44046 -0.46885,-0.43419 -1.3345,0.0434 -1.26289,0.69691 -1.53323,2.65012 -0.61314,4.42937 0.34226,0.66187 0.63873,1.68342 0.65871,2.27023 0.0722,2.11294 0.77043,1.30476 0.83602,-0.96777 0.0362,-1.25373 0.28136,-2.91798 0.54477,-3.69803 0.4149,-1.22867 0.81709,-1.58972 3.00942,-2.70319 2.99219,-1.51974 5.41312,-1.87159 7.05211,-1.02403 1.43023,0.7396 2.83159,2.60094 3.12122,4.14595 l 0.22288,1.18781 -1.17713,-1.34305 c -0.64704,-0.73867 -1.90236,-1.80449 -2.79008,-2.36851 -1.43927,-0.9145 -1.83408,-1.00126 -3.64604,-0.80041 -2.30899,0.25592 -3.24948,0.93354 -4.68646,3.37685 -1.22806,2.08804 -1.2825,5.33565 -0.12746,7.59973 0.86593,1.69737 2.7164,3.33031 4.50984,3.98074 4.2605,1.54518 8.78612,-0.94716 10.13843,-5.58372 0.64101,-2.19776 0.17578,-4.45667 -1.42993,-6.94102 -2.27478,-3.51947 -4.75612,-5.23732 -7.53921,-5.18635 z m -2.38773,3.59335 c 0.0761,-0.008 0.16513,0.0263 0.25779,0.11892 0.12113,0.12113 0.15059,0.42747 0.0663,0.68079 -0.12347,0.3706 -0.20895,0.37014 -0.43867,-0.001 -0.22806,-0.36902 -0.11341,-0.77463 0.11466,-0.79828 z m 4.43436,1.47907 c 0.21233,0 0.28412,0.16407 0.16024,0.3646 -0.12389,0.20053 -0.29751,0.36461 -0.38597,0.36461 -0.0885,0 -0.16095,-0.16408 -0.16095,-0.36461 0,-0.20053 0.17431,-0.3646 0.38668,-0.3646 z m -1.26186,0.8759 c 0.051,-4.4e-4 0.11286,0.0387 0.18728,0.11328 0.28786,0.28784 0.29583,0.70573 0.0285,1.43989 -0.37269,1.02308 -0.37667,1.0183 -0.4052,-0.4059 -0.0158,-0.79286 0.0367,-1.1459 0.18943,-1.14722 z m -3.64321,0.41089 c 0.11149,0.0263 0.19685,0.14827 0.28342,0.37388 0.12375,0.32228 0.22432,0.65525 0.22432,0.73917 0,0.0839 -0.23585,0.15239 -0.52482,0.15239 -0.76841,0 -1.00206,-0.58297 -0.42514,-1.06176 0.19261,-0.15986 0.33073,-0.22993 0.44222,-0.20368 z m 4.62237,2.11856 c 0.0813,-0.003 0.30992,0.0885 0.71638,0.27131 0.55148,0.24806 1.00267,0.58356 1.00267,0.7456 0,0.16206 0.28713,0.187 0.63806,0.0555 0.54578,-0.20454 0.56993,-0.15485 0.16521,0.34326 -0.40022,0.49255 -0.34551,0.67175 0.35464,1.16216 0.45525,0.31887 1.05093,0.57967 1.32382,0.57967 0.27289,0 0.42864,0.20509 0.34609,0.45576 -0.26054,0.79113 -1.49439,0.6965 -3.37687,-0.25851 -1.00141,-0.50804 -2.3131,-0.92953 -2.91469,-0.93643 -0.60161,-0.007 -1.38228,-0.23259 -1.73544,-0.50062 -0.56586,-0.42946 -0.57749,-0.54113 -0.0962,-0.9407 0.32058,-0.26604 0.81212,-0.33827 1.18923,-0.17447 0.35348,0.15345 0.93018,0.24351 1.28111,0.2001 0.35093,-0.0434 0.63805,0.0959 0.63805,0.30907 0,0.21314 0.2454,0.38739 0.5462,0.38739 0.66458,0 0.71488,-0.77676 0.0911,-1.41356 -0.18477,-0.18871 -0.25079,-0.28341 -0.16949,-0.28556 z m -6.96808,2.63341 c 0.0887,0.0241 0.28776,0.35541 0.51414,0.87734 0.79356,1.8295 1.6066,2.61351 2.43687,2.34999 0.5845,-0.1855 0.66236,-0.0933 0.46075,0.54192 -0.14314,0.45096 -0.0827,0.76553 0.14669,0.76553 0.21405,0 0.38881,0.16407 0.38881,0.3646 0,0.59861 -0.49472,0.41954 -1.55312,-0.56187 -1.04472,-0.96871 -2.46781,-3.4468 -2.44328,-4.2549 0.001,-0.0646 0.0196,-0.0907 0.0492,-0.0827 z m -20.436366,0.45861 c 1.400116,0.0182 2.771726,0.1152 4.097516,0.29695 1.40845,0.19305 1.69044,0.36088 1.6863,1.00266 -0.011,1.43081 -0.43851,1.70226 -2.00247,1.27042 -2.54793,-0.70351 -11.125636,-0.19685 -15.311256,0.90439 -4.12276,1.08468 -11.30833,4.49279 -14.31786,6.79077 -1.056857,0.80699 -1.97996,1.46767 -2.051618,1.46767 -0.07166,0 -0.316713,-0.22512 -0.544764,-0.4999 -0.326346,-0.39323 -0.119475,-0.76637 0.972037,-1.75253 6.483785,-5.85768 17.671195,-9.60819 27.472115,-9.48043 z m 15.180926,1.30602 c -0.16309,-0.0138 -0.31561,0.10059 -0.54975,0.33469 -0.54993,0.54995 -1.53493,4.15214 -1.54458,5.65209 -0.008,1.31438 1.12939,0.8437 2.05731,-0.85098 1.17656,-2.14881 1.42254,-3.93259 0.64945,-4.70568 -0.27608,-0.27606 -0.44934,-0.41671 -0.61243,-0.43012 z m 12.57458,1.31172 c 0.39368,0 1.33661,1.0771 1.3566,1.54957 0.0179,0.42329 -1.25159,0.3222 -1.7098,-0.13601 -0.46062,-0.46062 -0.22247,-1.41356 0.3532,-1.41356 z m 4.42867,0.31334 c 0.0496,-0.007 0.0601,0.0164 0.0249,0.0733 -0.14067,0.22759 -1.00645,0.88996 -1.92415,1.47194 -1.10141,0.6985 -2.10915,1.04465 -2.96455,1.01833 -1.26568,-0.039 -1.25777,-0.0475 0.34466,-0.36033 0.9024,-0.1761 2.3515,-0.82056 3.2202,-1.43206 0.65153,-0.45863 1.15,-0.75023 1.29891,-0.77123 z m -13.81011,1.26258 c -0.036,-0.006 -0.0643,9.9e-4 -0.0841,0.0207 -0.29911,0.29911 0.70181,2.1555 1.62364,3.01155 0.86873,0.80677 1.02381,0.84942 1.13226,0.31049 0.10528,-0.52297 -2.13277,-3.26142 -2.67187,-3.3427 z m -18.951606,0.12884 c 2.493996,-0.0189 4.442486,0.23601 4.977706,0.77122 0.29942,0.29943 0.18989,1.44634 -0.41658,4.34322 -0.45325,2.16502 -0.95862,4.81278 -1.12302,5.88423 -0.1644,1.07146 -0.37781,2.02721 -0.47427,2.12353 -0.0965,0.0965 -0.67513,-0.0825 -1.28536,-0.39807 -1.456816,-0.75336 -1.628546,-0.73383 -2.893346,0.33042 -1.22463,1.02995 -1.57159,2.28102 -1.21773,4.38238 l 0.24569,1.45842 -1.64784,0.43938 c -2.17342,0.57991 -4.28087,0.58767 -4.48493,0.0164 -0.0896,-0.25073 -0.30813,-0.31919 -0.48566,-0.15239 -0.18249,0.17144 -0.006,0.54229 0.40591,0.85312 0.55614,0.41963 1.30128,0.49911 3.14685,0.33612 1.96516,-0.17357 2.73423,-0.0741 4.10607,0.53266 0.9284,0.41067 1.84983,0.64663 2.04806,0.52412 0.19822,-0.1225 0.35957,-0.007 0.3582,0.25494 -0.004,0.87111 -1.45871,6.63161 -2.42121,9.59224 -0.52154,1.60421 -1.0614,3.04187 -1.1992,3.19456 -0.13782,0.15268 -1.14264,-0.82367 -2.2332,-2.16911 -2.53131,-3.12279 -2.89624,-3.73647 -1.62792,-2.73881 2.7474,2.1611 6.21511,-0.61502 4.71566,-3.77495 -0.64687,-1.36319 -1.83415,-1.98609 -3.78562,-1.98609 -1.96898,0 -2.55988,0.66446 -3.00301,3.37971 -0.1141,0.69914 -8.46256,-7.86274 -14.05579,-14.41469 l -3.01297,-3.52927 2.46606,-1.82445 c 4.57822,-3.38672 9.11129,-5.41578 14.64827,-6.55717 2.71624,-0.5599 5.75519,-0.85269 8.24918,-0.87164 z m -0.7876,1.20135 c -0.84583,-0.0561 -1.67483,0.14093 -2.14775,0.61384 -1.54481,1.54482 -1.62587,3.47361 -0.2058,4.89367 0.72738,0.72738 1.43059,1.06605 2.2154,1.06605 2.761666,0 4.330396,-3.72437 2.38702,-5.66775 -0.54008,-0.54008 -1.40303,-0.84974 -2.24887,-0.90581 z m -10.96093,2.19972 c -2.29717,-0.001 -3.61308,0.46142 -4.97842,1.75325 -2.30384,2.17981 -2.70438,5.05858 -1.1636,8.3681 0.85108,1.82803 0.85871,1.90052 0.1524,1.52251 -0.40786,-0.21828 -1.38997,-1.06464 -2.18194,-1.88071 -0.79197,-0.81607 -1.52589,-1.39734 -1.63145,-1.29178 -0.33322,0.3332 3.41073,3.92276 4.10393,3.93516 0.36394,0.007 1.31784,0.41533 2.11998,0.90938 1.80648,1.11271 2.66376,1.12693 5.61221,0.0911 3.08215,-1.08263 4.15816,-2.58895 4.34107,-6.07651 0.11424,-2.17762 0.0189,-2.57696 -0.98629,-4.14239 -1.46915,-2.28813 -2.98722,-3.18679 -5.38789,-3.18817 z m 0.0456,0.58394 c 0.47534,-0.024 1.29748,0.16133 1.29748,0.3646 0,0.0748 -0.3983,0.10225 -0.88517,0.062 -0.48687,-0.0402 -0.81449,-0.18699 -0.7285,-0.32616 0.038,-0.0616 0.15773,-0.0925 0.31619,-0.10046 z m 12.15586,0.69717 c 0.0179,5.5e-4 0.0329,0.007 0.0449,0.0185 0.0959,0.0959 -0.12141,0.45783 -0.48282,0.80399 -0.62782,0.60133 -0.63566,0.59349 -0.17446,-0.17448 0.1991,-0.33155 0.4151,-0.57386 0.55117,-0.63378 0.0227,-0.01 0.0434,-0.0148 0.0612,-0.0142 z m 17.132146,0.17589 c -1.36433,0 -1.16604,0.26563 0.69502,0.92932 1.69894,0.60586 2.30584,0.64644 2.30584,0.15524 0,-0.50309 -1.60893,-1.08456 -3.00086,-1.08456 z m -4.10893,1.82303 c -0.70186,0 -1.27611,0.13105 -1.27611,0.29126 0,0.16032 0.57425,0.22441 1.27611,0.14242 0.70186,-0.082 1.27612,-0.21299 1.27612,-0.29126 0,-0.0783 -0.57426,-0.14242 -1.27612,-0.14242 z m -26.175336,0.12099 c 0.0641,0.0237 0.0892,0.13339 0.0933,0.32188 0.0254,1.20682 2.62422,1.86685 3.63964,0.92433 0.34864,-0.32365 0.41965,-0.32926 0.24497,-0.0185 -0.1406,0.25003 0.0843,0.61454 0.52482,0.85028 1.10825,0.5931 0.67685,0.78011 -0.6466,0.28056 -0.93553,-0.35312 -1.28304,-0.31984 -2.07226,0.19727 -0.52157,0.34175 -0.94854,0.93448 -0.94854,1.31741 0,0.81756 1.35054,1.36406 1.93269,0.78191 0.22045,-0.22046 0.61097,-0.40092 0.86737,-0.40092 0.36396,0 0.37583,0.19813 0.0542,0.90439 -0.32224,0.70719 -0.59889,0.85804 -1.26828,0.69005 -0.68573,-0.17212 -0.85669,-0.0692 -0.85669,0.5177 0,0.64326 -0.22153,0.7256 -1.81945,0.67723 -1.69159,-0.0511 -1.77021,-0.0934 -1.11589,-0.60175 0.38717,-0.30079 0.80766,-0.97347 0.9343,-1.49473 0.19643,-0.80888 0.0671,-1.01528 -0.88231,-1.40857 -1.18359,-0.49027 -3.48543,-0.2051 -2.62701,0.32543 0.36727,0.22701 0.35149,0.333 -0.074,0.49636 -0.32828,0.12595 -0.60772,-0.0441 -0.70928,-0.43227 -0.12264,-0.46912 0.28244,-0.87202 1.51396,-1.50541 0.92462,-0.47554 2.04416,-1.28328 2.48815,-1.79525 0.40557,-0.46766 0.62035,-0.66675 0.72707,-0.62738 z m 31.465666,0.97275 c -2.57159,0 -3.32031,0.80727 -3.80413,4.1018 l -0.25424,1.73187 h 1.29108 c 1.66337,0 4.14318,-0.99417 4.59744,-1.84295 0.93648,-1.74983 -0.0911,-3.99072 -1.83015,-3.99072 z m -48.716725,0.50987 c 0.129673,0.0223 0.244573,0.10749 0.375996,0.23501 0.527566,0.512 0.333098,0.87246 -2.157724,3.99214 -4.426441,5.54393 -6.305405,9.13122 -7.927298,15.13393 -0.655855,2.42738 -0.786935,3.89578 -0.779769,8.75051 0.0076,5.1761 0.119324,6.24467 0.991981,9.47973 1.130015,4.18915 3.94272,10.27101 6.231743,13.47541 2.183452,3.05655 7.342354,7.91045 10.70029,10.06722 7.45754,4.7898 17.75804,7.08782 25.964556,5.79309 6.89671,-1.08812 14.99206,-5.21272 20.16434,-10.27374 2.05338,-2.00924 2.26894,-2.12809 3.06781,-1.70054 0.47257,0.25291 0.81173,0.64432 0.75413,0.87021 -0.16074,0.63092 -4.76276,4.67437 -7.04142,6.18689 -5.97382,3.96515 -12.34663,6.4618 -18.11488,7.09555 -1.947246,0.21402 -3.998186,0.36133 -4.557556,0.32757 -11.51184,-0.69377 -20.52051,-4.62628 -28.202012,-12.31182 -3.518036,-3.5199 -5.37229,-6.09364 -7.636052,-10.59703 -2.219253,-4.41485 -3.161991,-7.10335 -3.819804,-10.89471 -0.675233,-3.89174 -0.762099,-10.74116 -0.177317,-13.96606 1.323951,-7.30114 4.821623,-14.34229 9.747473,-19.621 1.503585,-1.61127 2.02637,-2.10936 2.415513,-2.04236 z m 23.088299,0.76624 0.0513,2.04735 c 0.0573,2.28536 -0.65036,3.55869 -2.51449,4.52266 -1.50953,0.7806 -1.82987,0.66018 -0.46217,-0.17375 1.60421,-0.97816 2.43341,-2.37586 2.69965,-4.55187 z m -20.783883,2.6085 c 1.061471,0.001 2.870003,2.03297 8.395873,7.87105 4.4147,4.66406 9.01132,9.62841 10.21463,11.03213 1.20331,1.40373 2.6996,3.03428 3.32559,3.62326 1.21022,1.13865 1.49579,1.87895 0.59106,1.53177 -0.3008,-0.11534 -0.54692,-0.0617 -0.54692,0.11892 0,0.18072 0.30689,0.42584 0.68151,0.54477 0.60533,0.19212 2.20871,1.64435 1.83655,1.66351 -0.0812,0.004 -2.44513,0.24553 -5.25259,0.53623 -4.64537,0.48096 -9.918,0.67555 -7.93015,0.29268 1.33129,-0.25642 0.93997,-0.74776 -0.7292,-0.91579 -2.19803,-0.22124 -3.2981,0.1549 -3.86538,1.32311 -0.70505,1.45198 -0.50476,1.58953 3.86538,2.65193 0.59468,0.14457 0.82036,0.0378 0.82036,-0.38953 0,-0.50116 0.50496,-0.58788 3.37258,-0.57824 2.7199,0.01 3.26321,0.0976 2.80576,0.45576 -4.1969,3.28608 -5.51223,4.52536 -7.65955,7.21803 -3.08131,3.86391 -4.43815,5.10832 -8.677171,7.95863 -1.817184,1.22191 -3.47325,2.22182 -3.680216,2.22182 -0.517383,0 -2.416823,-2.66671 -3.700888,-5.19491 -1.969609,-3.878 -3.968591,-10.27423 -3.387543,-10.84057 0.298448,-0.29088 2.817244,-0.48078 5.349435,-0.40306 1.001803,0.0307 1.006406,0.0424 0.455757,1.10734 -0.692654,1.33958 -0.718203,4.0387 -0.05264,5.58942 0.276889,0.64529 1.095923,1.73728 1.819459,2.42619 1.143244,1.08851 1.611031,1.27389 3.57127,1.41568 2.701617,0.19542 4.188337,-0.45883 5.556667,-2.44398 2.18224,-3.16605 1.89731,-7.09931 -0.69005,-9.52174 -0.96226,-0.90095 -1.06529,-0.91364 -8.875123,-1.09382 l -7.90167,-0.1823 -0.116072,-2.00533 c -0.164202,-2.8341 0.581986,-8.7737 1.459843,-11.62248 0.783816,-2.54357 1.648104,-4.41348 3.113381,-6.73592 l 0.885869,-1.40502 0.816085,0.76696 c 0.818965,0.76937 2.044491,1.04002 2.044491,0.45149 0,-0.17317 -0.162484,-1.17132 -0.361031,-2.21825 -0.340043,-1.79306 -0.299391,-1.99333 0.69858,-3.44382 0.741038,-1.07703 1.109234,-1.80672 1.74612,-1.80592 z m 11.121853,2.14988 c 0.15276,-0.0124 0.50931,0.21263 0.92291,0.59889 0.55147,0.51503 1.49488,1.19596 2.09648,1.51255 0.62649,0.32969 0.8447,0.58136 0.51058,0.58963 -0.7531,0.0189 -3.60973,-2.04477 -3.60973,-2.60778 0,-0.0592 0.0288,-0.0894 0.0798,-0.0933 z m -11.260015,1.45414 c -0.07414,0.008 -0.136425,0.0365 -0.186572,0.087 -0.355243,0.35525 -0.131051,0.77321 1.077443,2.00461 1.514994,1.54367 1.520394,1.55893 0.734905,2.04948 -0.777652,0.48562 -0.779002,0.50367 -0.08475,1.02118 0.388647,0.2897 0.667933,0.67325 0.620253,0.85241 -0.04768,0.17928 0.163426,0.22956 0.470006,0.11175 0.3066,-0.11768 0.50978,-0.067 0.45149,0.11245 -0.0583,0.17954 0.60242,0.96644 1.46767,1.74896 1.52359,1.37794 2.85668,3.36724 2.4974,3.72652 -0.0967,0.0967 -0.28014,-0.15203 -0.40734,-0.55261 -0.30965,-0.9756 -2.73045,-3.12525 -4.584618,-4.07118 -1.337285,-0.68223 -1.711352,-0.72112 -3.442382,-0.36176 -3.488863,0.7243 -5.799853,3.72299 -5.77243,7.49149 0.02398,3.29686 1.43875,5.67696 4.301917,7.23797 1.671926,0.91154 5.736983,0.64842 8.037683,-0.52056 2.56378,-1.30267 3.53817,-3.25156 3.36689,-6.73236 -0.10666,-2.16855 -0.38636,-3.08148 -1.86077,-6.07224 -1.9018,-3.85771 -5.574461,-8.25869 -6.686795,-8.13311 z m 42.249281,0.9806 c -0.45871,-0.0755 -1.36112,0.21828 -2.00533,0.65301 -0.64421,0.43474 -0.8433,0.6748 -0.44222,0.53408 0.40106,-0.14074 1.30349,-0.4346 2.00531,-0.65301 1.10348,-0.34338 1.16339,-0.4153 0.44224,-0.53408 z m 24.03541,0.92147 c 0.14446,0.14907 0.59272,1.5839 0.99626,3.18817 3.21304,12.77321 0.73546,26.84973 -6.70674,38.10117 -0.86216,1.30345 -1.96153,2.73866 -2.44256,3.18958 l -0.87449,0.82036 -0.8061,-0.75128 -0.80613,-0.75129 2.204,-2.43829 c 3.53404,-3.90983 6.45734,-10.22389 7.88173,-17.02319 0.96002,-4.58259 0.97172,-15.86718 0.0207,-19.95498 -0.36067,-1.55021 -0.80445,-2.91064 -0.98628,-3.02295 -1.0715,-0.0385 -2.64179,0.82786 -2.35853,1.76748 1.07967,3.39469 1.62461,7.03119 1.63288,10.88901 0.006,2.39305 -0.14743,4.35917 -0.34751,4.48278 -0.19602,0.12113 -1.58341,-0.0333 -3.08347,-0.34324 -3.18573,-0.65802 -5.58386,-0.71875 -7.00796,-0.17732 -0.8418,0.32006 -1.1025,0.27327 -1.52394,-0.27345 -0.36103,-0.46835 -0.55809,-0.52729 -0.67936,-0.20367 -0.27753,0.74036 -1.43147,0.52411 -2.64338,-0.49564 -0.70778,-0.59556 -1.40018,-0.88121 -1.8508,-0.76339 -0.4047,0.10584 -0.73096,0.003 -0.74488,-0.23357 -0.0138,-0.2319 -0.20383,-0.0507 -0.42229,0.40236 -0.50525,1.04793 -0.35066,1.18305 1.98539,1.73898 l 1.92487,0.45789 -1.15577,0.42941 c -0.63565,0.23601 -1.24504,0.66264 -1.35446,0.94784 -0.25229,0.65743 1.58198,1.64952 2.57147,1.39076 0.5826,-0.15235 0.80103,0.0831 1.14651,1.23624 0.57844,1.93069 1.62489,2.80289 3.36333,2.80289 1.8402,0 3.41352,-1.14913 3.55988,-2.59994 0.14211,-1.40859 -0.8127,-2.56436 -2.63484,-3.18816 l -1.43207,-0.48993 1.47907,-0.24996 c 2.85728,-0.4827 6.74696,0.73492 7.59688,2.37848 1.13734,2.19939 0.36027,6.24411 -2.20116,11.45799 -1.60425,3.26546 -5.62049,8.5682 -6.48953,8.5682 -0.55006,0 -10.78205,-8.27096 -14.13128,-11.42308 -1.31445,-1.23709 -3.81656,-3.54338 -5.56022,-5.12513 -1.74367,-1.58172 -3.17006,-2.97635 -3.17035,-3.09913 -2.9e-4,-0.12278 2.58385,-0.15612 5.74253,-0.0733 3.15864,0.0827 5.38739,0.2153 4.95277,0.29482 -0.43462,0.0795 -1.21396,0.53764 -1.73187,1.01762 -1.55361,1.43984 -1.13187,3.66372 0.99198,5.23192 0.96216,0.71052 1.02225,0.82722 0.34467,0.67153 -1.14214,-0.26244 -0.70968,0.27926 0.68435,0.85668 1.09665,0.45426 1.20026,0.4243 2.01457,-0.59035 0.47199,-0.58811 1.12508,-1.76417 1.45131,-2.61276 0.91366,-2.37668 0.27034,-3.5478 -2.71531,-4.94495 -2.12078,-0.99243 -2.80676,-1.11971 -6.88548,-1.27683 -2.56495,-0.0988 -4.393,-0.31196 -4.2136,-0.49135 0.17427,-0.17428 1.49535,-1.04273 2.93535,-1.93056 1.95852,-1.20751 2.68819,-1.49632 2.89619,-1.14509 1.19577,2.01922 5.95685,1.49906 6.5116,-0.71141 0.23305,-0.9286 0.0754,-2.46876 -0.35392,-3.45661 -0.17495,-0.40255 0.35135,-0.87497 1.95405,-1.75609 2.06804,-1.13694 2.19262,-1.16308 2.19262,-0.45433 0,0.7639 2.58407,2.9439 3.48939,2.9439 0.25435,0 0.82227,0.58292 1.26258,1.29534 0.44028,0.71242 0.88208,1.21369 0.98129,1.11447 0.0992,-0.0992 -0.1688,-0.67001 -0.59532,-1.269 l -0.7755,-1.08954 0.91792,-1.35231 c 0.5049,-0.74401 0.91792,-1.60851 0.91792,-1.92058 0,-0.31208 -0.49637,0.21547 -1.10307,1.17214 -1.10004,1.7346 -1.99607,2.06791 -1.99607,0.74274 0,-0.38431 0.36483,-0.85842 0.81039,-1.05394 1.01568,-0.44571 1.65275,-1.93776 1.49688,-3.50504 l -0.11961,-1.20277 6.36491,-3.20809 c 3.50063,-1.76474 6.48322,-3.08725 6.62768,-2.9382 z m -37.412556,1.58376 c 0.11066,-0.0356 0.0885,0.1272 -0.0477,0.48211 -0.10941,0.28525 -0.46483,0.62043 -0.78902,0.74487 -0.48418,0.18581 -0.46911,0.0936 0.0847,-0.51842 0.3971,-0.43878 0.64128,-0.67298 0.75201,-0.70856 z m -13.29454,3.33484 c -0.17548,0.001 -0.3163,0.0586 -0.42584,0.16807 -0.27575,0.27576 0.11368,0.77314 1.33665,1.70694 1.37168,1.04739 1.8311,1.22991 2.2396,0.89087 0.42962,-0.35655 0.34658,-0.5621 -0.50845,-1.25405 -1.27311,-1.03033 -2.11549,-1.51749 -2.64196,-1.51183 z m 43.254066,0.7107 c -1.43162,0.0632 -2.90522,1.12293 -3.52569,3.00301 -0.82467,2.49877 0.17683,3.90423 3.51785,4.93498 l 2.12497,0.65515 0.11107,1.68416 h 7.2e-4 c 0.0908,1.37541 0.23865,1.68345 0.80754,1.68345 0.38301,0 0.88036,-0.34396 1.10521,-0.76411 0.33198,-0.62031 0.24263,-1.08294 -0.47498,-2.46108 -0.54887,-1.05409 -1.11312,-1.6777 -1.48833,-1.64642 -0.48244,0.0402 -0.42084,-0.16793 0.30549,-1.03114 1.0414,-1.23763 1.16728,-2.75008 0.35891,-4.3133 -0.64131,-1.24016 -1.72929,-1.7939 -2.84277,-1.7447 z m -59.705417,0.34894 c 0.374329,-0.0255 0.694626,0.48365 0.828901,1.3986 0.111345,0.75907 0.0083,1.09808 -0.331844,1.09808 -0.645347,0 -1.349866,-1.82263 -0.884449,-2.28803 0.132015,-0.13201 0.262598,-0.20014 0.387392,-0.20865 z m 5.513921,1.76748 c 0.59446,0 0.36966,0.74229 -0.29623,0.97845 -1.05505,0.37416 -1.91419,1.27945 -1.91419,2.01672 0,0.38179 -0.16407,0.59246 -0.364597,0.46857 -0.200531,-0.12388 -0.3646,-0.0382 -0.3646,0.19085 0,0.22907 0.205093,0.3447 0.455757,0.25637 0.66343,-0.23392 2.46107,1.13497 2.46107,1.87429 0,0.3473 0.19997,0.83161 0.44438,1.07601 0.3494,0.34941 0.1936,0.39465 -0.72922,0.21008 -0.86538,-0.17307 -1.17443,-0.10335 -1.17856,0.26633 -0.003,0.27573 -0.21121,0.0943 -0.46287,-0.40306 -0.25166,-0.49739 -0.863006,-1.10659 -1.358726,-1.35374 -0.800761,-0.39922 -0.933438,-0.3629 -1.187809,0.32472 -0.301928,0.81618 -0.133807,3.26853 0.268468,3.9195 0.1305,0.21122 0.01392,0.38384 -0.258505,0.38384 -0.60453,0 -1.370826,-2.00147 -1.370826,-3.58053 0,-1.3486 -0.424007,-1.48489 -1.162178,-0.37315 -0.417751,0.62909 -0.728732,0.7344 -1.558115,0.52625 l -1.036129,-0.26063 1.603686,-1.6336 1.602983,-1.63431 -0.61955,-1.07958 c -0.340815,-0.59385 -0.58627,-1.07663 -0.545481,-1.07387 0.04079,0.003 0.730358,0.24154 1.532484,0.53053 2.20291,0.79362 3.169049,0.67865 4.499168,-0.53622 0.65866,-0.6016 1.35144,-1.09382 1.53959,-1.09382 z m 47.152916,0.8816 c 0.13078,0.0303 0.2229,0.23257 0.2229,0.53338 0,0.40106 -0.16407,0.83106 -0.36461,0.95495 -0.20053,0.12388 -0.3646,-0.10308 -0.3646,-0.50418 0,-0.40108 0.16407,-0.83035 0.3646,-0.95423 0.0502,-0.031 0.0981,-0.04 0.14171,-0.0299 z m -46.215046,1.06461 c 0.081,0.0168 0.13311,0.0859 0.13311,0.19869 0,0.20053 -0.16407,0.46574 -0.3646,0.58963 -0.20053,0.12388 -0.3646,0.0609 -0.3646,-0.13957 0,-0.20053 0.16407,-0.46575 0.3646,-0.58963 0.0502,-0.031 0.0981,-0.05 0.14172,-0.0584 0.0327,-0.007 0.0627,-0.007 0.0897,-7.2e-4 z m 1.86075,0.42372 0.0398,1.82303 c 0.0721,3.3003 -1.55335,5.64023 -4.64728,6.68963 -1.686382,0.572 -3.677874,0.50764 -4.776897,-0.15453 -0.890485,-0.53654 -0.89185,-0.54446 -0.05912,-0.31761 1.449884,0.39505 4.190379,0.23016 5.536017,-0.33326 2.18745,-0.91593 3.24366,-2.56427 3.64747,-5.69267 z m 7.00726,1.66279 c -1.1221,0.052 -2.15312,0.95345 -2.93251,2.66973 -0.89708,1.97533 -0.87071,3.09249 0.0954,4.12104 1.41086,1.50179 4.0039,0.90555 5.90916,-1.35873 1.27326,-1.51319 1.20519,-2.25821 -0.3639,-3.99499 -0.90727,-1.00424 -1.83544,-1.4774 -2.70818,-1.43705 z m 0.50987,1.16645 c 0.0474,-0.02 0.17733,0.0701 0.40947,0.26278 0.30539,0.25346 0.55474,0.52324 0.55474,0.59889 0,0.40848 -0.68477,0.0503 -0.88089,-0.46075 -0.0961,-0.2502 -0.13064,-0.38088 -0.0834,-0.40092 z m -9.08378,0.6345 c 0.31263,0 0.56827,0.16407 0.56827,0.3646 0,0.20053 -0.15382,0.36462 -0.34253,0.36462 -0.18869,0 -0.4451,-0.16409 -0.56899,-0.36462 -0.12388,-0.20053 0.0306,-0.3646 0.34325,-0.3646 z m 37.198926,0.89727 c 0.0221,0.008 0.0459,0.0427 0.0712,0.10542 0.10115,0.25066 0.10115,0.66085 0,0.91151 -0.10115,0.25066 -0.18373,0.0456 -0.18373,-0.45576 0,-0.37602 0.0468,-0.58572 0.11245,-0.56115 z m -41.199609,1.08884 c 0.267338,-0.0247 0.531423,0.0287 0.692183,0.18942 0.25902,0.25902 0.24976,0.3767 -0.0306,0.3767 -0.22423,0 -0.66767,0.0998 -0.984866,0.22148 -0.317209,0.12168 -0.576817,0.0575 -0.576817,-0.14314 0,-0.3444 0.454558,-0.60337 0.900117,-0.64446 z m 19.019253,2.55508 c -0.53448,-0.0476 -1.32845,0.25413 -2.48957,0.94141 -1.75797,1.04058 -1.82607,1.12641 -0.74344,0.93857 0.65486,-0.11369 1.87187,-0.51868 2.70392,-0.90012 1.33319,-0.61117 1.42127,-0.72321 0.74273,-0.93856 -0.066,-0.0209 -0.13725,-0.0345 -0.21364,-0.0413 z m 24.734726,2.83346 c -0.18716,0.01 -0.42451,0.0582 -0.72921,0.13463 l -1.00836,0.25352 0.92219,0.4828 c 0.50697,0.26563 1.01801,0.73428 1.13583,1.04112 0.33962,0.88511 0.5241,0.65202 0.43011,-0.54334 -0.0835,-1.06089 -0.1891,-1.39634 -0.75056,-1.36869 z m 14.98581,1.01121 c -0.26501,0 -0.80688,1.14433 -1.25118,2.64339 -0.9096,3.06888 -0.92656,3.26354 -0.34324,3.84686 1.38052,1.38053 3.56851,-0.61146 3.57127,-3.25082 0.001,-1.37609 -1.13548,-3.23943 -1.97685,-3.23943 z m -20.43423,0.0335 c -0.15232,-0.0256 -0.58254,0.14929 -1.3046,0.52269 -0.95024,0.49137 -1.06978,0.73597 -1.02403,2.09647 l 0.052,1.54032 0.22645,-1.45843 c 0.12472,-0.80214 0.40976,-1.42367 0.63379,-1.3815 0.22404,0.0422 0.69892,-0.24496 1.05464,-0.63806 0.38864,-0.42945 0.51408,-0.65589 0.36176,-0.68149 z m -12.424336,0.33112 c 0.2347,0 1.50854,0.94345 2.831386,2.09648 1.32285,1.15305 5.74296,4.98992 9.82225,8.52619 4.0793,3.53631 8.38171,7.41819 9.56091,8.62661 l 2.14418,2.19759 -1.77389,1.72333 c -4.69734,4.56534 -12.17973,8.5994 -18.15475,9.78736 -2.83577,0.56382 -7.895936,0.954 -9.335146,0.71995 -0.50133,-0.0816 -1.46163,-0.23753 -2.13422,-0.34681 -1.47511,-0.23975 -1.60029,0.7736 1.35873,-10.99297 1.22205,-4.85957 2.46931,-10.02788 2.77155,-11.48504 1.35792,-6.54687 2.51223,-10.85269 2.909,-10.85269 z m -2.79434,0.28841 -0.89228,4.13955 c -1.02927,4.77399 -2.39041,9.86998 -2.11784,7.92801 0.2162,-1.54046 -0.2408,-2.0592 -2.05162,-2.32649 l -1.24194,-0.18301 1.16717,0.36887 c 0.64186,0.20304 1.26637,0.53032 1.38791,0.72708 0.14264,0.23106 -0.1181,0.22847 -0.7349,-0.006 -2.63998,-1.00372 -4.90076,0.52386 -5.18707,3.50362 -0.15145,1.57613 -0.0459,1.97076 0.7933,2.96811 0.59928,0.71221 1.17667,1.06978 1.5168,0.93928 0.46746,-0.17938 0.44461,-0.3259 -0.15381,-0.98414 -0.90589,-0.99647 -1.63947,-2.42032 -1.38079,-2.67899 0.11093,-0.11093 0.36569,0.23148 0.56684,0.76054 0.37029,0.97395 2.44853,2.51123 3.11836,2.30655 0.20054,-0.0613 0.65205,-0.67591 1.00268,-1.36584 0.92999,-1.82998 0.78338,-0.80881 -0.43369,3.02507 -0.88254,2.78013 -3.30281,11.95021 -3.30351,12.51691 0,0.0864 -0.36916,0.14594 -0.82036,0.13174 -2.46988,-0.0773 -9.18721,-3.68524 -13.03462,-7.00012 -1.704368,-1.46848 -3.099144,-2.86234 -3.099144,-3.09772 0,-0.53607 13.921454,-13.75856 17.444774,-16.56885 1.43486,-1.14451 3.26464,-2.67432 4.06619,-3.39966 0.80156,-0.72534 1.89173,-1.40558 2.42263,-1.51183 z m -22.61831,1.66066 c 0.42279,-0.007 0.85985,0.0656 1.17785,0.23571 0.43529,0.23296 0.71212,0.63106 0.61456,0.88517 -0.11824,0.3077 0.0845,0.4136 0.60957,0.31617 0.51098,-0.0948 0.94832,0.117 1.24621,0.60388 0.37839,0.61829 0.36927,0.74986 -0.0519,0.74986 -0.28105,0 -0.60589,0.24612 -0.72137,0.54691 -0.11548,0.3008 -0.46388,0.5469 -0.77479,0.5469 -0.42086,0 -0.50717,-0.23279 -0.33683,-0.9115 0.20838,-0.83026 0.1163,-0.9394 -0.76553,-0.9044 -0.47032,0.0187 -2.366369,-1.15785 -2.366369,-1.46838 0,-0.35966 0.664046,-0.58917 1.368689,-0.60032 z m 19.715,1.97756 c -0.12458,-0.0416 -0.42628,0.27077 -0.84813,0.89157 -0.50134,0.73779 -0.9063,1.47327 -0.89941,1.63431 0.0225,0.57159 1.81091,-1.76329 1.81091,-2.36424 0,-0.0943 -0.0219,-0.14775 -0.0634,-0.16164 z m -24.251196,1.71335 c 0.150384,-0.006 0.309258,0.16646 0.432261,0.55404 0.142764,0.44979 0.01102,0.95781 -0.338969,1.30745 -0.519325,0.51938 -0.571828,0.47132 -0.571828,-0.52626 0,-0.82185 0.227899,-1.32564 0.478536,-1.33523 z m 4.210759,0.9343 c 0.894977,0.0174 1.873587,0.88924 1.873587,1.6692 0,0.58401 -0.27813,0.68934 -1.826582,0.68934 -1.311846,0 -1.777663,-0.12858 -1.652124,-0.45576 0.09619,-0.25067 -0.02549,-0.46097 -0.269888,-0.46786 -0.24438,-0.007 -0.05678,-0.33482 0.416593,-0.72921 0.473424,-0.39439 1.129698,-0.7126 1.458414,-0.70571 z m 30.816923,0.35321 c -2.78473,0 -3.703966,4.29886 -1.21417,5.67773 2.12711,1.17798 4.72063,0.18343 4.72063,-1.81021 0,-2.07234 -1.62734,-3.86752 -3.50646,-3.86752 z m 14.47665,0.17375 c -1.59154,-0.0537 -1.43356,0.41239 0.60602,0.83746 2.37167,0.49425 2.56833,0.49958 2.82782,0.0798 0.28043,-0.45374 -0.20319,-0.61096 -2.64552,-0.86095 -0.29841,-0.0306 -0.56095,-0.0485 -0.78832,-0.0562 z m -39.672106,1.05822 c 0.0383,-0.0383 0.0892,0.0124 0.14741,0.15809 0.10528,0.26321 0.0926,0.57745 -0.0285,0.69858 -0.12126,0.12113 -0.20741,-0.0941 -0.19156,-0.47853 0.008,-0.21237 0.0343,-0.33981 0.0726,-0.37814 z m 45.729396,1.08669 v 7.2e-4 c -0.36153,0.0163 -0.74016,0.0919 -1.14367,0.22502 -1.05599,0.34852 -1.27723,0.62295 -1.48191,1.83442 -0.26917,1.59323 -0.006,2.78378 0.8289,3.73363 1.16071,1.32182 3.5728,0.51435 4.6423,-1.55384 0.75496,-1.45994 0.68235,-2.29502 -0.27559,-3.17176 -0.72519,-0.66376 -1.43389,-1.01181 -2.21398,-1.06392 -0.11699,-0.008 -0.23554,-0.01 -0.35605,-0.004 z m -21.57292,0.13601 c 0.0688,0.0223 0.14534,0.27317 0.21933,0.73563 0.10418,0.65172 0.13091,1.18495 0.0591,1.18495 -0.27903,0 -0.52741,-1.08382 -0.39167,-1.71049 0.0335,-0.1544 0.0721,-0.22349 0.11328,-0.21009 z m 17.98597,0.0976 c -0.28216,0 -1.13291,0.51119 -1.89067,1.13583 -1.31472,1.08371 -1.3491,1.16715 -0.75556,1.82301 0.87567,0.96762 1.23766,0.85609 1.23766,-0.38026 0,-0.71881 0.31368,-1.31412 0.96065,-1.82303 0.55613,-0.4374 0.74485,-0.75555 0.44792,-0.75555 z m -22.527856,0.0933 c -0.0721,0.0245 -0.13463,0.13546 -0.20794,0.32402 -0.12816,0.32991 -0.0502,1.27866 0.17304,2.10787 0.22328,0.82919 0.56225,1.41059 0.75342,1.29249 0.50563,-0.31251 0.40211,-2.03265 -0.18587,-3.08846 -0.26597,-0.47766 -0.4125,-0.67678 -0.53265,-0.63592 z m -19.89304,0.14386 c 0.0303,0.011 0.0328,0.053 0.003,0.12815 -0.19834,0.49006 -2.01316,2.04554 -2.01316,1.72547 0,-0.0721 0.50292,-0.61271 1.11731,-1.20135 0.46013,-0.44079 0.80148,-0.68427 0.893,-0.6523 z m -9.133628,0.26561 c 0.09439,0.0292 0.352088,0.25695 0.823926,0.69931 0.598384,0.561 1.563517,1.16217 2.144192,1.33594 0.725686,0.21719 0.827371,0.32224 0.326153,0.33326 -1.051605,0.0241 -2.647822,-0.93075 -3.136886,-1.87572 -0.182603,-0.35282 -0.251794,-0.52202 -0.157385,-0.49279 z m 5.850768,0 c 0.1367,0.0207 0.34936,0.17589 0.54263,0.40877 0.25768,0.31048 0.38659,0.64668 0.28627,0.747 -0.10032,0.10032 -0.39318,-0.0719 -0.65087,-0.3824 -0.25769,-0.31049 -0.38659,-0.6467 -0.28627,-0.74702 0.0251,-0.0251 0.0627,-0.0332 0.10817,-0.0263 z m 0.71854,1.80167 c 0.0868,0.0198 0.0238,0.0956 -0.17591,0.23072 v 7.2e-4 c -0.30081,0.20351 -0.86113,0.37252 -1.24549,0.37528 -0.93282,0.007 -0.64203,-0.20146 0.69859,-0.50133 0.39941,-0.0894 0.636,-0.12526 0.72281,-0.10542 z m 9.16282,1.10236 c -0.13078,-0.0219 -0.2236,0.0587 -0.2236,0.21791 0,0.21236 0.16406,0.38595 0.3646,0.38595 0.20053,0 0.3646,-0.0725 0.3646,-0.16092 0,-0.0885 -0.16407,-0.26209 -0.3646,-0.38598 -0.0502,-0.031 -0.0974,-0.0496 -0.141,-0.0569 z m 22.709456,1.07814 c -0.3897,0.0482 -0.28501,0.49772 0.33683,1.33879 0.43696,0.591 0.79401,1.29535 0.79401,1.56594 0,0.27059 0.20509,0.76904 0.45576,1.10735 0.41248,0.55676 0.55522,0.56354 1.50043,0.0697 1.64442,-0.85884 1.97302,-0.68662 3.15397,1.65282 0.6103,1.20902 1.43277,2.52161 1.828,2.91684 0.77337,0.77337 2.34766,0.96332 2.73882,0.33043 1.04645,-1.69322 -2.4183,-6.15337 -5.34945,-6.88618 -0.87586,-0.21899 -2.44376,-0.84251 -3.48438,-1.38508 -0.81814,-0.42657 -1.41299,-0.66081 -1.77674,-0.70642 -0.0758,-0.01 -0.14159,-0.011 -0.19725,-0.004 z m -15.174526,0.0285 c 0.0383,-0.0383 0.0892,0.0124 0.14741,0.15809 0.10528,0.2632 0.0926,0.57746 -0.0285,0.69859 -0.12126,0.12113 -0.20739,-0.0943 -0.19154,-0.47855 0.008,-0.21237 0.0343,-0.3398 0.0726,-0.37813 z m -7.8739,0.33256 c -0.87532,-0.0409 -2.68108,0.34675 -3.12122,0.78688 -0.51113,0.51109 -0.48158,0.56542 0.30693,0.56542 1.07914,0 3.29426,-0.77615 3.29426,-1.15433 0,-0.12279 -0.1882,-0.18432 -0.47997,-0.19797 z m 16.674966,1.3523 c -2.727756,0 -2.831646,0.0329 -4.002106,1.274 -1.37529,1.45819 -2.20705,4.52947 -1.80593,6.66755 0.59928,3.19445 2.38729,5.51551 4.850936,6.29797 3.77026,1.19743 9.1906,-2.73596 9.1906,-6.66897 0,-2.41713 -2.17594,-5.86946 -4.44789,-7.05639 -0.59843,-0.31265 -2.08323,-0.51416 -3.78561,-0.51416 z m -1.325246,1.09525 c 0.424086,9.2e-4 0.27326,0.21942 -0.46787,0.67722 -0.6016,0.3716 -1.35939,0.98619 -1.68415,1.36584 -0.32476,0.37965 -0.68052,0.93615 -0.79117,1.23695 -0.16152,0.43929 -0.20686,0.42376 -0.23001,-0.0791 -0.0367,-0.79829 2.34682,-3.20234 3.1732,-3.20096 z m 5.944756,1.20063 c 0.24142,0.001 0.38509,0.15064 0.37173,0.44793 -0.008,0.19551 -0.47275,0.40033 -1.03044,0.45504 -0.97492,0.0956 -0.98601,0.0777 -0.29909,-0.46075 0.3772,-0.29582 0.71637,-0.44323 0.9578,-0.44222 z m -23.840296,0.987 c -3.09424,-0.003 -4.96581,2.20226 -4.21218,4.96275 0.46026,1.68587 0.86125,2.2255 2.31581,3.11481 1.31573,0.80446 3.74221,0.8742 4.79397,0.13739 1.64045,-1.14902 2.5089,-4.71903 1.47765,-6.07365 -0.83052,-1.09095 -2.97379,-2.13996 -4.37525,-2.14134 z m 28.136496,0.36318 c -0.46361,0 1.80025,3.72919 2.82213,4.6487 0.50142,0.45119 0.98306,0.82037 1.0696,0.82037 0.2009,0 -2.30659,-3.98457 -3.04002,-4.83101 -0.30411,-0.35093 -0.68746,-0.63806 -0.85171,-0.63806 z m -20.931286,0.0989 c -0.0176,0.001 -0.0331,0.008 -0.0456,0.0207 -0.10032,0.10032 0.008,0.53877 0.2414,0.97419 0.23303,0.43542 0.5057,0.70989 0.60602,0.60957 0.10032,-0.10032 -0.008,-0.53877 -0.24142,-0.97418 -0.17478,-0.32656 -0.37141,-0.56217 -0.50133,-0.6174 -0.0216,-0.01 -0.0415,-0.0145 -0.0591,-0.0124 z m -13.5445,0.26562 c -0.36376,0 -1.93766,1.53223 -1.93766,1.8864 0,0.53057 0.70736,0.32307 1.45841,-0.42799 0.72104,-0.72104 0.96336,-1.45841 0.47925,-1.45841 z m 7.7443,0.0391 c 0.13202,-0.0466 0.58833,0.16369 1.25119,0.67295 0.49832,0.38289 0.82011,0.78216 0.71496,0.8873 -0.10514,0.10515 -0.67736,-0.2055 -1.27112,-0.69075 -0.63517,-0.51908 -0.82704,-0.8229 -0.69503,-0.8695 z m 18.878256,0.0976 c 0.0656,0.0147 0.11203,0.0605 0.13956,0.1367 0.0905,0.25066 0.35807,0.45576 0.59392,0.45576 0.23585,0 0.64202,0.34201 0.90296,0.75982 0.26914,0.43102 0.70142,0.67255 0.9991,0.55831 0.80954,-0.31065 1.61865,0.14357 1.61865,0.90866 0,0.522 -0.26345,0.69003 -1.081,0.69003 -1.64749,0 -2.52487,2.25513 -1.27968,3.28857 0.75711,0.62834 0.41106,0.87472 -0.52482,0.37386 -0.41824,-0.22383 -0.76055,-0.64694 -0.76055,-0.9407 0,-0.8117 -0.48546,-0.64612 -1.64072,0.55972 -0.57636,0.60159 -1.188886,1.09381 -1.361556,1.09381 -0.17267,0 0.26191,-0.5928 0.965626,-1.31741 1.24588,-1.28284 1.26335,-1.34009 0.65586,-2.16556 -0.37506,-0.50962 -1.315326,-1.0166 -2.356396,-1.27112 -2.07406,-0.50703 -2.20697,-0.9072 -0.39879,-1.20064 0.73317,-0.11892 1.821666,-0.67369 2.418356,-1.23268 0.54393,-0.50954 0.91253,-0.74157 1.10948,-0.69716 z m 5.58015,0.74345 c 0.0262,-0.0172 0.0659,-0.01 0.11961,0.0234 0.19217,0.11879 0.45422,0.77578 0.58251,1.45985 0.1283,0.68407 0.14826,1.45762 0.0434,1.71906 -0.10473,0.26142 -0.20349,0.0342 -0.21934,-0.50418 -0.0159,-0.53842 -0.19246,-1.40897 -0.39238,-1.93483 -0.16782,-0.44162 -0.21277,-0.71194 -0.13381,-0.76339 z m -11.064886,3.23872 c 0.10432,-0.0533 0.37567,0.50665 0.65231,1.37296 0.31616,0.99006 0.51217,1.80024 0.43652,1.80024 -0.27809,0 -1.22979,-2.63917 -1.1223,-3.11196 0.008,-0.0336 0.0186,-0.0536 0.0335,-0.0612 z m -15.23649,0.62096 c 0.3008,0 0.5469,0.0644 0.5469,0.14313 0,0.0788 -0.2461,0.23774 -0.5469,0.35322 -0.30079,0.11548 -0.54691,0.0511 -0.54691,-0.14314 0,-0.19424 0.24612,-0.35321 0.54691,-0.35321 z m 4.16234,0.27417 c 0.0138,0.001 0.02,0.01 0.0193,0.027 -0.0216,0.4583 -0.89685,1.40081 -1.69626,1.82658 -0.43801,0.23329 -1.01226,0.41844 -1.27611,0.41017 -0.63696,-0.019 -2.84991,-0.98879 -2.84991,-1.24905 0,-0.11258 0.59463,0.0433 1.32098,0.3468 1.8295,0.76442 2.22846,0.70478 3.44737,-0.51414 0.5129,-0.51291 0.94041,-0.85915 1.03471,-0.84743 z m 17.531636,3.00727 c 0.20053,0 0.3646,0.16408 0.3646,0.36461 0,0.20053 -0.16407,0.3646 -0.3646,0.3646 -0.20053,0 -0.36461,-0.16407 -0.36461,-0.3646 0,-0.20053 0.16408,-0.36461 0.36461,-0.36461 z"
         sodipodi:nodetypes="cscccccccssssssssssssssssccccsssssssssssssssssssssccsccsssssscccscccssssssssccsccscsccssscccssssssscccsccccscssscccscccsssscscscsssssssccssscssccsssssccccccssssscccscsscscsscsscssccssssssssssccccccsscssscsscsssscccsssscsssscssssscccscccscsssscsscssssssssssccscsssssscsscscssccssccsccsssscsscsscsssccccssssssccssccccsscsssssssssccssssssscsscssccscccssscccssssccccsssscssscssssscsccssssscssccccssssscccsscsscsccccsssscccsssssscsscsssssssssssssssscccsssssccccsscsccccssscssccccssssssssscsssssssscssscsssssscccccssssssssssssssssscsscscscsccccsssccsssssssscssscsssscsssscccssssccssccccssscscscscccssccscscccsccsssccscccccsssssssssccsssscccscscsssscsccsccssscccsccssssscscsscsssccscccsscccscssccccsssccssssssssccssssssssssscssssssssssccccssccssscccssscssssscccssccsssssssscssssscssccccscscscsscsccscssscscsccccsssssssssscssssssssssssscsssccscsccccsscccscssscsscscsccssssss" /><path
         id="path35952"
         style="display:inline;fill:#000000;fill-opacity:1;stroke-width:0.364604"
         d="m 111.61903,139.39199 c -1.5988,0.0383 -1.90386,0.22868 -2.56006,0.88303 -1.44052,1.43649 -1.69446,2.86312 -0.85525,4.80181 l 0.71069,1.64215 -1.13797,4.88512 c -0.62598,2.68678 -1.28818,5.45938 -1.47123,6.16126 l -0.33256,1.27611 -7.211616,0.0157 c -8.28695,0.0175 -11.17863,0.51742 -17.67976,3.05926 -9.835412,3.8454 -20.034412,13.18031 -24.525364,22.44739 -4.192697,8.65168 -5.466406,17.8363 -3.661713,26.40321 3.867461,18.35906 17.43034,32.49782 34.644567,36.1151 4.18901,0.88029 13.032466,0.97988 16.767526,0.18871 8.62976,-1.82798 16.00736,-5.90135 23.10469,-12.75547 6.24804,-6.03403 10.06488,-11.86993 12.60877,-19.27918 3.04542,-8.87016 3.54106,-20.11859 1.3046,-29.61345 -0.70958,-3.01247 -2.30654,-7.07489 -2.78154,-7.07489 -0.64206,0 -8.79765,4.57317 -13.44978,7.54205 -6.39055,4.07831 -6.01598,3.86102 -6.01598,3.49436 0,-0.17023 2.91228,-2.7911 6.47174,-5.82441 3.55944,-3.03336 7.94837,-6.85799 9.75316,-8.49915 4.59722,-4.18031 9.57164,-8.143 11.35972,-9.04959 0.83331,-0.4225 1.85875,-1.20573 2.27878,-1.7397 0.85511,-1.08711 1.02186,-3.34853 0.34182,-4.63305 -0.83655,-1.58015 -4.6787,-6.00392 -7.6097,-8.76119 -7.77308,-7.31235 -17.97857,-11.57722 -27.96204,-11.68443 -0.88136,-0.01 -1.55856,-0.0138 -2.0915,-7.2e-4 z m 0.0285,3.46588 c 1.82968,-0.0728 8.18651,0.82253 10.98301,1.61366 4.34126,1.22816 10.79361,4.466 14.01947,7.03572 4.44872,3.5439 9.86048,9.97123 9.24045,10.97447 -0.42667,0.69036 -1.118,0.41365 -1.78385,-0.71355 -1.28724,-2.17911 -6.9354,-7.69328 -9.86,-9.62642 -3.97449,-2.6271 -6.63226,-3.91052 -10.97161,-5.29744 -3.68023,-1.17626 -9.08792,-2.17637 -9.50607,-1.75822 -0.12499,0.12499 -0.93632,3.56222 -1.80307,7.63817 -2.25235,10.5919 -4.04737,18.46934 -5.26256,23.08902 -0.58024,2.20584 -1.41458,5.81545 -1.85365,8.02131 -1.07062,5.37871 -2.80639,12.35678 -3.46659,13.93686 -1.11731,2.67408 -0.51617,2.98362 1.52963,0.7876 3.76339,-4.03977 21.55364,-19.97916 30.53351,-27.35674 1.62229,-1.33287 4.33807,-3.67089 6.03519,-5.19561 1.69712,-1.52471 3.29682,-2.77227 3.5549,-2.77227 1.62623,0 -0.6369,2.28993 -12.80602,12.9577 -9.94812,8.72073 -15.22706,13.57179 -17.01964,15.63883 -1.1957,1.37879 -5.57939,4.94504 -10.78646,8.77544 -2.783866,2.04786 -3.035756,2.19363 -3.035756,1.7575 0,-0.16976 0.50142,-2.60373 1.113746,-5.40853 0.61233,-2.80481 1.68649,-7.88872 2.38703,-11.29777 1.31369,-6.3928 5.2572,-23.51084 7.85325,-34.08981 1.45313,-5.9218 1.4658,-6.03366 0.83602,-7.20307 -0.35177,-0.65333 -0.53776,-1.28954 -0.41374,-1.41356 0.0531,-0.053 0.22142,-0.083 0.48281,-0.0933 z m 3.94371,4.79185 c 0.14434,-0.16389 6.55854,1.32386 9.1372,2.11926 2.87443,0.88666 5.42051,2.09946 7.839,3.73434 2.06058,1.39294 8.02129,7.15781 8.02129,7.75782 0,0.50915 -5.73552,5.89255 -12.24415,11.49146 -2.42318,2.08445 -5.95073,5.15889 -7.83901,6.83207 -1.88822,1.67312 -4.49743,3.97016 -5.79735,5.10445 -1.29995,1.13427 -4.29002,3.9266 -6.64478,6.20541 l -4.28126,4.1431 1.08741,-3.21664 c 0.59812,-1.76947 1.42457,-4.46689 1.83655,-5.9939 1.31682,-3.75181 1.73264,-7.33978 3.62896,-13.29525 0.58079,-1.8048 1.37874,-4.7581 1.77317,-6.56289 0.39443,-1.80479 1.12955,-5.16827 1.63361,-7.47439 0.50406,-2.30607 1.10869,-5.66965 1.34376,-7.47439 0.23506,-1.80479 0.46261,-3.32167 0.5056,-3.37045 z M 99.068684,162.4397 c 1.400116,0.0182 2.771726,0.1152 4.097516,0.29695 1.40845,0.19305 1.69044,0.36088 1.6863,1.00266 -0.011,1.43081 -0.43853,1.70226 -2.00247,1.27042 -2.54793,-0.70351 -11.125646,-0.19685 -15.311256,0.90439 -4.12276,1.08468 -11.30833,4.49279 -14.31786,6.79077 -1.056857,0.80699 -1.97996,1.46767 -2.051618,1.46767 -0.07166,0 -0.316713,-0.22512 -0.544764,-0.4999 -0.326346,-0.39323 -0.119475,-0.76637 0.972037,-1.75253 6.483785,-5.85766 17.671195,-9.60819 27.472115,-9.48043 z m -0.57754,4.32256 c 2.493996,-0.0189 4.442486,0.236 4.977706,0.77122 0.29942,0.29943 0.18989,1.44634 -0.41658,4.34321 -0.45325,2.16503 -0.95862,4.81278 -1.12302,5.88423 -0.1644,1.07146 -0.37781,2.02721 -0.47427,2.12354 -0.0294,0.0293 -0.11411,0.0265 -0.22005,0.008 -0.33082,1.63394 -0.62011,3.19306 -0.64944,4.52052 -0.39611,0.92909 -0.676056,2.28586 -0.950676,3.77351 0.0711,0.0431 0.11672,0.13739 0.11603,0.2756 -0.004,0.87111 -1.4587,6.63159 -2.4212,9.59222 -0.52154,1.60424 -1.0614,3.04189 -1.19921,3.19457 -0.13781,0.15269 -1.14265,-0.82368 -2.23319,-2.16912 -1.4484,-1.78682 -2.16615,-2.72929 -2.29588,-3.04145 -0.6141,-0.77224 -1.24191,-1.53254 -1.88141,-2.28305 -1.84422,-1.37493 -8.73863,-8.53979 -13.57939,-14.21033 l -3.01297,-3.52925 2.46606,-1.82445 c 4.57822,-3.38675 9.1113,-5.4158 14.64827,-6.55719 2.71624,-0.5599 5.75519,-0.85269 8.24918,-0.87164 z m -29.950267,8.28478 c 0.129673,0.0223 0.244573,0.10748 0.375996,0.23501 0.527567,0.51199 0.333099,0.87246 -2.157724,3.99213 -4.426431,5.54393 -6.305406,9.13123 -7.927297,15.13393 -0.655856,2.42738 -0.786936,3.8958 -0.77977,8.75051 0.0076,5.1761 0.119324,6.24467 0.991981,9.47973 1.130014,4.18915 3.942734,10.27102 6.231744,13.47541 2.183452,3.05655 7.342367,7.91045 10.700287,10.06723 7.45755,4.78978 17.75804,7.0878 25.964556,5.79308 6.8967,-1.08812 14.99206,-5.21273 20.16435,-10.27373 2.05338,-2.00924 2.26893,-2.1281 3.0678,-1.70055 0.47257,0.25291 0.81173,0.64433 0.75413,0.87021 -0.16073,0.63092 -4.76277,4.67438 -7.04142,6.18689 -5.97381,3.96514 -12.34663,6.46181 -18.11488,7.09555 -1.947226,0.21402 -3.998176,0.36133 -4.557546,0.32757 -11.51183,-0.69377 -20.52053,-4.62629 -28.202019,-12.31182 -3.518036,-3.51989 -5.37229,-6.09363 -7.636053,-10.59703 -2.219249,-4.41485 -3.161991,-7.10335 -3.819803,-10.8947 -0.675232,-3.89173 -0.762098,-10.74117 -0.177317,-13.96607 1.323949,-7.30112 4.821632,-14.34229 9.747472,-19.621 1.503586,-1.61125 2.02637,-2.10935 2.415513,-2.04235 z m 2.304416,3.37473 c 1.061472,0.001 2.870001,2.03297 8.395871,7.87105 4.4147,4.66405 9.01132,9.62842 10.21463,11.03214 1.20332,1.40373 2.6996,3.03427 3.3256,3.62326 1.2102,1.13863 1.49578,1.87895 0.59105,1.53176 -0.3008,-0.11534 -0.54691,-0.0617 -0.54691,0.11893 0,0.18071 0.30688,0.42584 0.6815,0.54476 0.60533,0.19213 2.20871,1.64435 1.83655,1.66351 -0.0812,0.004 -2.44513,0.24554 -5.25258,0.53623 -4.64538,0.48095 -9.91801,0.67556 -7.93016,0.29268 1.33129,-0.25642 0.93996,-0.74776 -0.7292,-0.91578 -2.19803,-0.22124 -3.2981,0.1549 -3.86538,1.3231 -0.59705,1.22958 -0.37871,1.54465 2.30512,2.24888 0.84952,-0.0594 1.686,-0.14873 2.50096,-0.28557 0.27186,-0.2387 1.08949,-0.28642 3.25225,-0.27914 2.71989,0.01 3.26319,0.0976 2.80575,0.45575 -4.19689,3.28609 -5.51223,4.52538 -7.65955,7.21803 -3.08131,3.86391 -4.43815,5.10833 -8.677168,7.95864 -1.817171,1.2219 -3.47325,2.22182 -3.680217,2.22182 -0.517383,0 -2.416822,-2.66672 -3.700887,-5.19491 -1.969609,-3.87801 -3.968591,-10.27423 -3.387543,-10.84058 0.298447,-0.29087 2.817244,-0.48078 5.349435,-0.40306 0.770127,0.0237 0.943332,0.0474 0.735622,0.53552 1.344574,-0.53866 2.795547,-0.83118 4.300483,-0.99768 0.228023,-0.48172 1.731965,-0.65737 2.514485,-0.23857 0.0296,0.0158 0.0517,0.0376 0.0798,0.0548 1.21045,-0.0504 2.43144,-0.0744 3.64462,-0.11534 -0.18949,-0.23107 -0.3904,-0.45597 -0.61456,-0.66584 -0.96227,-0.90095 -1.06531,-0.91364 -8.875129,-1.09382 l -7.90167,-0.1823 -0.116072,-2.00532 c -0.164202,-2.83409 0.581988,-8.77371 1.459843,-11.62249 0.783816,-2.54356 1.648104,-4.41348 3.113381,-6.73592 2.488686,-4.61851 1.918939,-2.14188 4.083994,-5.84864 0.741037,-1.07701 1.109234,-1.80672 1.74612,-1.80592 z m 66.146527,5.5061 c 0.14446,0.14906 0.59272,1.5839 0.99626,3.18816 3.21304,12.7732 0.73546,26.84975 -6.70673,38.10117 -0.86217,1.30346 -1.96154,2.73866 -2.44257,3.18958 l -0.87448,0.82036 -0.80611,-0.75128 -0.80612,-0.75129 2.204,-2.43829 c 3.53403,-3.90982 6.45734,-10.2239 7.88173,-17.02319 0.96002,-4.58259 0.9717,-15.86718 0.0207,-19.95498 -0.36068,-1.5502 -0.80446,-2.91064 -0.98629,-3.02295 -0.18185,-0.11231 -0.84362,0.061 -1.47053,0.38526 -0.922,0.47683 -1.09196,0.74091 -0.888,1.38222 1.07967,3.39469 1.62462,7.0312 1.63289,10.88901 0.006,2.39305 -0.14744,4.35918 -0.34752,4.48279 -0.19602,0.12113 -1.58341,-0.0334 -3.08347,-0.34324 -3.18572,-0.65803 -5.58386,-0.71876 -7.00796,-0.17733 -0.8418,0.32006 -1.1025,0.27328 -1.52394,-0.27344 -0.36103,-0.46835 -0.55809,-0.52729 -0.67936,-0.20368 -0.27753,0.74037 -1.43147,0.52411 -2.64338,-0.49563 -0.70777,-0.59556 -1.40018,-0.88121 -1.8508,-0.76339 -0.4047,0.10583 -0.73096,0.003 -0.74488,-0.23358 -0.0138,-0.23189 -0.20382,-0.0507 -0.42228,0.40236 -0.50526,1.04792 -0.35067,1.18305 1.98538,1.73898 l 1.92487,0.45789 -0.5049,0.18801 c 1.44235,0.13491 3.03239,0.20979 4.60812,0.35464 l -0.0391,-0.0138 1.47907,-0.24996 c 2.85728,-0.48268 6.74696,0.73492 7.59688,2.37849 1.13734,2.19938 0.36027,6.2441 -2.20116,11.45799 -1.60425,3.26544 -5.62049,8.56819 -6.48953,8.56819 -0.55006,0 -10.78205,-8.27095 -14.13128,-11.42308 -1.31445,-1.23709 -3.81656,-3.54338 -5.56022,-5.12512 -1.74367,-1.58171 -3.17006,-2.97635 -3.17035,-3.09913 -2.9e-4,-0.12279 2.58385,-0.15616 5.74253,-0.0733 1.35278,0.0354 2.39957,0.0819 3.27502,0.12746 0.66887,-0.22293 1.27738,-0.43157 1.70909,-0.64446 -1.45373,-0.58905 -2.51757,-0.7059 -5.87712,-0.83532 -2.56495,-0.0988 -4.393,-0.31196 -4.2136,-0.49135 0.17427,-0.17428 1.49535,-1.04273 2.93535,-1.93056 7.63914,-5.73748 14.1009,-8.92483 20.14014,-12.4813 l 4.71208,-2.37492 c 3.50063,-1.76473 6.48322,-3.08725 6.62768,-2.9382 z m -51.169966,5.45554 c 0.0914,0.21078 0.35996,0.49671 0.78405,0.8581 -0.26107,-0.28622 -0.52166,-0.57302 -0.78405,-0.8581 z m 12.63796,16.87428 c 0.23469,0 1.50853,0.94345 2.831386,2.09647 1.32284,1.15305 5.74295,4.98994 9.82225,8.52619 4.07929,3.53631 8.3817,7.41819 9.5609,8.62661 l 2.14418,2.1976 -1.77389,1.72332 c -4.69733,4.56534 -12.17973,8.5994 -18.15475,9.78736 -2.83575,0.56382 -7.895926,0.954 -9.335146,0.71995 -0.50133,-0.0816 -1.46163,-0.23753 -2.13422,-0.34681 -1.47511,-0.23975 -1.60029,0.7736 1.35873,-10.99297 1.22204,-4.85955 2.46931,-10.02788 2.77156,-11.48504 1.35791,-6.54687 2.51222,-10.85268 2.909,-10.85268 z m -2.79435,0.28841 -0.89228,4.13954 c -0.4203,1.94939 -0.8775,3.84303 -1.27469,5.39857 -0.24708,1.5395 -0.59309,3.06301 -1.09382,4.56112 0.0263,0.19284 -0.001,0.37638 -0.0876,0.46217 -0.0289,0.0289 -0.0557,0.0364 -0.0798,0.0292 -0.004,0.0124 -0.008,0.0238 -0.0124,0.0356 -0.12182,0.24127 -0.23651,0.49349 -0.35036,0.74702 0.40011,-0.55361 0.12361,0.68158 -0.85026,3.7493 -0.88255,2.78013 -3.30282,11.95021 -3.30352,12.51691 0,0.0864 -0.36916,0.14593 -0.82036,0.13174 -2.46988,-0.0773 -9.18721,-3.68526 -13.03462,-7.00012 -1.704368,-1.46849 -3.099144,-2.86234 -3.099144,-3.09772 0,-0.53607 13.921454,-13.75857 17.444774,-16.56885 1.43486,-1.14451 3.26464,-2.67432 4.06619,-3.39967 0.80156,-0.72534 1.89173,-1.40558 2.42263,-1.51182 z"
         sodipodi:nodetypes="cccccccccssssccsssssssssscccssssssssssssssssssssssccscssssssscccccssscsccssssscccssssccccssccccccsccscsscscccssccccssssssccsscssscssscccccsssscccsccssccsccccccsccccsssssscscsscsscsccccccsssssscccssccccccscscscccsccsssccccccccsccssssccc" /><path
         id="path5614"
         style="display:inline;fill:#32a322;fill-opacity:1;stroke-width:0.364604"
         d="m 117.44287,166.63338 c -0.036,-0.006 -0.0644,9.6e-4 -0.0842,0.0207 -0.29911,0.29911 0.70185,2.15565 1.62368,3.0117 0.86873,0.80677 1.02378,0.84951 1.13223,0.31058 0.10528,-0.52297 -2.13259,-3.26167 -2.67167,-3.34295 z m -1.36685,4.98677 c -1.36431,0 -1.16601,0.26597 0.69505,0.92966 1.69894,0.60586 2.3058,0.64623 2.3058,0.15503 0,-0.50309 -1.60892,-1.08469 -3.00085,-1.08469 z m -4.10879,1.82315 c -0.70186,0 -1.27589,0.13124 -1.27589,0.29145 0,0.16032 0.57403,0.2241 1.27589,0.14211 0.70186,-0.082 1.27641,-0.21266 1.27641,-0.29093 0,-0.0783 -0.57455,-0.14263 -1.27641,-0.14263 z m 0.77721,6.56291 c -0.10198,0 -1.26249,0.55179 -2.57813,1.22576 -0.89871,0.46039 -1.67653,0.78534 -2.08515,0.88832 l -0.23099,0.78806 1.49086,-0.53588 c 1.03694,-0.37287 2.21608,-0.70177 2.62052,-0.73071 0.4542,-0.0324 0.77968,-0.3548 0.85162,-0.84387 0.0641,-0.43549 0.0332,-0.79168 -0.0687,-0.79168 z m 0.48008,0.19327 -0.0253,0.17104 h 0.21755 z m -0.45941,2.79517 c -0.48882,0.0116 -1.25015,0.28417 -1.81384,0.66456 -0.64421,0.43474 -0.84343,0.67506 -0.44235,0.53434 0.40106,-0.14074 1.30323,-0.43478 2.00505,-0.65319 1.10348,-0.34338 1.1635,-0.41556 0.44235,-0.53434 -0.0573,-0.009 -0.12137,-0.013 -0.19121,-0.0114 z m -17.067166,2.82464 -1.04128,0.2775 c -2.17342,0.57991 -4.28094,0.58781 -4.485,0.0165 -0.0896,-0.25073 -0.30823,-0.31925 -0.48576,-0.15245 -0.18249,0.17144 -0.0062,0.54235 0.40566,0.85318 0.55614,0.41963 1.30153,0.49887 3.1471,0.3359 0.05343,-0.005 0.09712,-0.007 0.14883,-0.0114 l 0.25993,-0.3545 0.15244,0.32349 c 1.15328,-0.0764 1.87018,-0.0213 2.65824,0.23203 z m -9.41338,3.0272 c -0.17548,0.001 -0.31627,0.0585 -0.42581,0.16795 -0.27575,0.27576 0.1139,0.77307 1.33687,1.70687 1.37166,1.04739 1.83115,1.22993 2.23965,0.89091 0.42962,-0.35655 0.34654,-0.56224 -0.50849,-1.25419 -1.27311,-1.03033 -2.11575,-1.5172 -2.64222,-1.51154 z m 30.510276,10.989 c -0.0771,0.0232 -0.20855,0.20342 -0.35191,0.50074 -0.50525,1.04793 -0.35063,1.18298 1.9854,1.73891 l 1.92495,0.45837 -0.3669,0.13591 c 0.064,0.005 0.14831,0.0109 0.14831,0.0109 l 1.53427,-0.8263 0.001,-0.0264 c -0.50828,0.14782 -1.34313,-0.16786 -2.20917,-0.89658 -0.70778,-0.59556 -1.39991,-0.88108 -1.85053,-0.76326 -0.4047,0.10584 -0.73126,0.003 -0.74518,-0.23358 -0.003,-0.058 -0.0177,-0.0902 -0.0408,-0.0987 -0.009,-0.003 -0.0184,-0.003 -0.0295,0 z m -25.409816,2.21123 c -0.5259,0.0353 -1.26088,0.34173 -2.27686,0.9431 -1.75797,1.04056 -1.82574,1.12628 -0.74311,0.93844 0.65486,-0.11369 1.87168,-0.51876 2.70371,-0.9002 1.33319,-0.61117 1.42113,-0.7231 0.74259,-0.93845 -0.06598,-0.0209 -0.13703,-0.0345 -0.21342,-0.0413 -0.06681,-0.006 -0.13778,-0.007 -0.21291,-0.002 z m 1.37718,8.13749 c -0.12458,-0.0416 -0.42616,0.27062 -0.84801,0.89142 -0.50134,0.73779 -0.90658,1.47348 -0.89969,1.63452 0.0225,0.57159 1.81126,-1.76326 1.81126,-2.36419 0,-0.0943 -0.02206,-0.14786 -0.06356,-0.16175 z m 25.253236,3.17448 c -1.59154,-0.0537 -1.4334,0.41261 0.60616,0.83768 2.37167,0.49425 2.56825,0.49936 2.82774,0.0796 0.28043,-0.45374 -0.20352,-0.61094 -2.64583,-0.86093 -0.29841,-0.0306 -0.5607,-0.0481 -0.78807,-0.0558 z m 2.47013,2.37867 c -0.28216,0 -1.13256,0.51121 -1.89032,1.13585 -1.31472,1.08369 -1.34957,1.16728 -0.75603,1.82314 0.87567,0.96762 1.23765,0.85601 1.23765,-0.38034 0,-0.71881 0.3137,-1.31423 0.96067,-1.82314 0.55613,-0.4374 0.74496,-0.75551 0.44803,-0.75551 z m -22.481306,0.0894 c -0.01603,-0.002 -0.03149,-9.8e-4 -0.04651,0.004 -0.0721,0.0245 -0.13443,0.13545 -0.20774,0.32401 -0.12816,0.32991 -0.05012,1.27869 0.17312,2.10788 0.22328,0.82919 0.56227,1.41053 0.75344,1.29243 0.50563,-0.31251 0.40194,-2.03289 -0.18604,-3.0887 -0.23272,-0.41795 -0.3741,-0.62248 -0.48627,-0.63975 z m 24.291536,0.15916 c -0.32264,0.17217 -0.50842,0.38762 -0.64027,0.73329 0.20166,-0.22769 0.41378,-0.46942 0.64027,-0.73329 z m -37.632326,3.15846 c -0.13078,-0.0219 -0.22376,0.0583 -0.22376,0.21756 0,0.21236 0.16378,0.38603 0.36432,0.38603 0.20053,0 0.36484,-0.0723 0.36484,-0.16072 0,-0.0885 -0.16431,-0.26213 -0.36484,-0.38602 -0.0502,-0.031 -0.09696,-0.0496 -0.14056,-0.0568 z m -0.339,1.43919 c -0.87532,-0.0409 -2.68111,0.34639 -3.12125,0.78652 -0.51113,0.51109 -0.48154,0.56534 0.30695,0.56534 1.07914,0 3.29386,-0.77576 3.29386,-1.15394 0,-0.12279 -0.18779,-0.18427 -0.47956,-0.19792 z m -8.88524,5.36247 c -0.36376,0 -1.93787,1.53253 -1.93787,1.8867 0,0.53057 0.70778,0.32318 1.45883,-0.42788 0.72104,-0.72104 0.96315,-1.45882 0.47904,-1.45882 z" /></g></g><metadata
     id="metadata26826"><rdf:RDF><cc:Work
         rdf:about=""><dc:rights><cc:Agent><dc:title>PD</dc:title></cc:Agent></dc:rights><dc:creator><cc:Agent><dc:title>j4p4n</dc:title></cc:Agent></dc:creator><cc:license
           rdf:resource="http://creativecommons.org/publicdomain/zero/1.0/" /></cc:Work><cc:License
         rdf:about="http://creativecommons.org/publicdomain/zero/1.0/"><cc:permits
           rdf:resource="http://creativecommons.org/ns#Reproduction" /><cc:permits
           rdf:resource="http://creativecommons.org/ns#Distribution" /><cc:permits
           rdf:resource="http://creativecommons.org/ns#DerivativeWorks" /></cc:License></rdf:RDF></metadata></svg>
